<?xml version="1.0" standalone="no"?>
<!DOCTYPE svg PUBLIC "-//W3C//DTD SVG 20010904//EN"
 "http://www.w3.org/TR/2001/REC-SVG-20010904/DTD/svg10.dtd">
<svg version="1.0" xmlns="http://www.w3.org/2000/svg"
 width="1080.000000pt" height="1080.000000pt" viewBox="0 0 1080.000000 1080.000000"
 preserveAspectRatio="xMidYMid meet">

<g transform="translate(0.000000,1080.000000) scale(0.100000,-0.100000)"
fill="#000000" stroke="none">
<path d="M4115 10660 c-3 -11 -15 -20 -26 -20 -13 0 -19 -7 -19 -23 0 -13 -11
-34 -25 -47 -14 -13 -25 -32 -25 -42 0 -28 -18 -58 -35 -58 -7 0 -15 -10 -17
-22 -2 -15 -11 -24 -25 -26 -13 -2 -24 -13 -27 -28 -4 -13 -10 -24 -14 -24
-12 0 -92 -77 -92 -89 0 -6 -11 -13 -25 -17 -16 -4 -25 -13 -25 -25 0 -12 -10
-21 -26 -25 -14 -4 -30 -17 -34 -30 -6 -14 -18 -24 -28 -24 -11 0 -38 -13 -60
-30 -23 -16 -51 -30 -62 -30 -11 0 -20 -4 -20 -9 0 -11 -57 -41 -77 -41 -7 0
-16 -6 -19 -14 -3 -7 -23 -19 -46 -27 -23 -7 -44 -22 -50 -35 -8 -16 -22 -23
-59 -28 -33 -5 -49 -11 -49 -21 0 -17 -31 -35 -61 -35 -32 0 -146 -124 -155
-167 -4 -19 -14 -35 -25 -38 -10 -4 -19 -12 -19 -18 0 -7 -13 -25 -30 -40 -19
-18 -30 -39 -30 -55 0 -31 -9 -46 -31 -54 -10 -4 -18 -23 -22 -50 -4 -28 -13
-48 -26 -57 -13 -8 -21 -24 -21 -43 0 -18 -9 -38 -26 -53 -14 -13 -28 -39 -31
-57 -2 -18 -16 -44 -29 -59 -19 -20 -24 -36 -24 -77 0 -43 -4 -54 -24 -67 -20
-13 -25 -27 -30 -85 -6 -54 -11 -70 -25 -75 -14 -4 -19 -20 -24 -73 -5 -53
-11 -71 -29 -85 -18 -15 -22 -30 -24 -78 -1 -58 -15 -89 -39 -89 -8 0 -14 -28
-17 -92 -5 -78 -9 -95 -27 -109 -16 -13 -21 -28 -21 -64 0 -72 -21 -188 -36
-200 -9 -7 -16 -51 -22 -140 -6 -94 -14 -141 -28 -170 -18 -38 -19 -65 -19
-456 l0 -417 22 -18 c23 -19 23 -19 25 -394 2 -307 0 -382 -12 -415 -8 -22
-21 -44 -27 -48 -7 -4 -13 -25 -13 -46 0 -43 -25 -111 -40 -111 -6 0 -10 -20
-10 -45 0 -36 -4 -47 -25 -61 -18 -12 -25 -25 -25 -48 0 -59 -13 -108 -29
-114 -25 -9 -31 -23 -31 -84 0 -49 -3 -59 -26 -75 l-26 -20 0 -430 c0 -345 -2
-432 -12 -436 -8 -3 -34 -9 -60 -12 -29 -5 -46 -12 -46 -21 0 -8 -8 -14 -18
-14 -17 0 -42 47 -42 78 0 6 -11 22 -25 36 -14 14 -28 39 -31 56 -4 16 -13 30
-20 30 -18 0 -36 36 -30 58 7 22 -4 39 -29 43 -12 3 -21 14 -23 27 -2 12 -10
22 -17 22 -7 0 -22 11 -33 25 -11 14 -23 25 -27 25 -12 0 -35 28 -35 43 0 8
-11 18 -25 21 -16 4 -25 13 -25 25 0 13 -8 21 -22 23 -15 2 -24 11 -26 25 -2
14 -11 23 -25 25 -14 2 -23 11 -25 25 -2 12 -15 26 -33 33 -16 7 -29 20 -29
29 0 9 -10 21 -22 26 -18 8 -24 20 -26 52 -3 34 -7 42 -28 47 -15 4 -24 13
-24 26 0 13 -10 24 -25 30 -21 8 -25 16 -25 50 0 33 -4 42 -24 51 -19 9 -25
22 -30 59 -5 35 -12 50 -25 55 -13 4 -21 19 -26 50 -5 35 -11 45 -25 45 -23 0
-30 19 -30 81 0 43 -4 54 -31 78 -20 19 -30 37 -29 52 4 42 1 49 -25 59 -22 8
-25 15 -25 59 0 39 -4 50 -18 53 -19 5 -32 50 -32 111 0 20 -7 30 -25 37 -20
8 -25 16 -25 45 0 25 -7 43 -25 59 -14 13 -25 32 -25 42 0 36 -12 63 -30 69
-12 4 -19 20 -24 55 -5 40 -10 49 -29 52 -19 3 -22 10 -25 51 -2 26 -7 47 -12
47 -19 0 -40 33 -40 65 0 27 -6 37 -27 47 -23 11 -29 21 -31 53 -2 31 -8 43
-25 50 -16 7 -23 20 -25 48 -2 26 -10 42 -28 53 -14 10 -24 26 -24 39 0 17 -7
25 -22 27 -19 2 -24 11 -29 45 -3 24 -7 44 -10 45 -2 2 -13 8 -24 14 -14 8
-21 23 -23 50 -2 24 -11 45 -22 54 -14 11 -22 33 -27 80 -4 44 -12 69 -25 80
-12 10 -20 35 -25 78 -5 55 -9 65 -30 73 -17 6 -23 17 -25 44 -1 19 -2 49 -3
66 -1 20 -11 38 -25 49 -20 15 -23 28 -28 110 -4 72 -9 97 -23 111 -17 17 -19
36 -19 163 0 157 6 206 25 206 8 0 14 26 18 78 4 42 10 87 13 100 6 21 3 22
-43 22 l-50 0 -5 -69 c-4 -50 -11 -77 -27 -96 -20 -26 -21 -38 -21 -236 0
-194 1 -208 19 -214 21 -6 31 -49 31 -136 0 -45 4 -59 20 -70 15 -11 22 -30
26 -79 4 -43 12 -70 24 -80 22 -19 40 -73 40 -121 0 -28 4 -39 15 -39 19 0 35
-31 35 -70 0 -18 6 -33 15 -36 16 -7 35 -63 35 -106 0 -18 8 -33 25 -44 14 -9
25 -21 25 -27 0 -5 14 -32 30 -59 17 -26 30 -57 30 -67 0 -10 9 -21 20 -24 12
-3 20 -14 20 -25 0 -12 4 -23 10 -27 5 -3 7 -12 3 -20 -3 -10 1 -15 15 -15 23
0 32 -18 32 -65 0 -27 6 -37 27 -47 22 -10 29 -21 31 -51 2 -26 10 -42 28 -53
18 -12 24 -25 24 -50 0 -24 8 -41 25 -56 17 -15 25 -32 25 -55 0 -24 7 -37 25
-49 20 -13 25 -25 25 -55 0 -32 4 -41 24 -48 19 -8 25 -19 30 -59 5 -37 11
-51 25 -55 14 -3 21 -18 26 -56 4 -28 11 -51 16 -51 13 0 39 -63 39 -93 0 -13
11 -34 25 -47 19 -18 25 -34 25 -67 0 -37 4 -45 24 -53 20 -7 25 -18 31 -62 4
-29 10 -55 14 -58 18 -14 41 -63 41 -88 0 -17 10 -38 25 -52 18 -17 25 -34 25
-60 0 -30 5 -39 25 -48 19 -9 25 -19 25 -44 0 -37 6 -48 35 -64 14 -8 21 -23
23 -53 3 -34 8 -44 28 -51 13 -5 24 -18 24 -27 0 -10 10 -23 23 -28 17 -8 23
-20 25 -52 3 -44 5 -45 69 -58 29 -6 33 -11 39 -50 5 -35 11 -45 28 -47 13 -2
22 -11 24 -25 2 -12 13 -24 27 -27 14 -4 25 -15 27 -28 2 -14 12 -24 28 -28
15 -4 26 -14 28 -27 2 -11 11 -23 22 -26 10 -2 20 -15 22 -28 2 -16 11 -25 25
-27 17 -3 23 -12 28 -53 5 -39 11 -49 25 -49 28 0 32 -14 31 -93 -1 -61 -4
-74 -26 -97 -14 -14 -25 -36 -25 -47 0 -22 -24 -53 -41 -53 -5 0 -9 -13 -9
-28 0 -16 -9 -77 -19 -136 -17 -95 -18 -113 -6 -159 7 -29 17 -80 20 -114 5
-38 13 -64 21 -67 8 -3 14 -14 14 -25 0 -11 5 -23 10 -26 6 -3 10 -15 10 -26
0 -12 7 -19 19 -19 34 0 42 -24 41 -121 -2 -103 14 -191 36 -210 8 -6 14 -24
14 -38 0 -16 10 -37 25 -51 14 -13 25 -32 25 -42 0 -10 7 -18 15 -18 21 0 33
-37 27 -82 -4 -35 -2 -38 21 -38 20 0 26 -6 29 -27 2 -19 10 -29 28 -34 l25
-6 -25 -5 c-22 -5 -22 -5 -3 -7 13 -1 26 -12 35 -31 10 -23 21 -31 48 -36 54
-9 55 -9 55 -30 0 -10 10 -23 23 -29 24 -11 31 -55 8 -55 -15 0 -28 -24 -19
-34 4 -3 20 -6 37 -6 25 0 34 6 46 32 8 18 13 39 12 46 -2 9 17 12 73 12 l75
0 0 49 c0 46 -1 49 -31 55 -17 3 -50 6 -73 6 -38 0 -42 2 -42 24 0 22 4 24 49
24 35 1 53 6 64 19 8 10 12 13 9 7 -3 -7 3 -14 14 -17 14 -3 20 -14 20 -31 0
-21 5 -26 25 -26 20 0 25 5 25 25 0 25 8 28 83 28 29 0 21 35 -10 40 -16 2 -4
5 25 6 33 0 52 5 53 14 1 6 2 19 3 27 0 8 13 16 29 18 21 3 27 9 27 28 0 20 5
24 31 24 31 0 31 0 27 48 l-3 47 50 5 c42 4 50 8 53 28 5 34 52 31 52 -3 0
-20 5 -25 25 -25 23 0 25 -3 25 -50 0 -49 1 -50 30 -50 25 0 30 4 30 25 0 23
3 25 50 25 l49 0 3 -72 3 -73 49 1 c34 0 52 6 61 18 7 9 17 16 21 15 14 -3 28
27 21 45 -4 9 -16 16 -27 16 -15 0 -20 7 -20 25 0 24 -3 25 -55 25 l-55 0 0
55 c0 52 -1 55 -25 55 -23 0 -25 3 -25 50 l0 49 78 3 77 3 3 46 c3 45 4 47 40
53 20 3 54 6 75 6 l37 0 0 -49 c0 -44 -3 -50 -22 -53 -17 -2 -24 -11 -26 -30
-3 -22 -9 -28 -28 -28 -22 0 -24 -3 -24 -55 0 -52 1 -55 25 -55 23 0 25 -3 25
-50 0 -49 1 -50 30 -50 l30 0 0 -130 0 -130 25 0 c21 0 25 -5 25 -30 0 -25 4
-30 25 -30 20 0 25 -5 25 -25 0 -20 5 -25 25 -25 23 0 25 -4 25 -42 0 -78 11
-118 31 -118 17 0 19 -8 19 -74 0 -70 -1 -75 -22 -78 -19 -2 -24 -10 -26 -48
-2 -25 -1 -73 3 -107 6 -58 8 -63 31 -63 19 0 24 -5 24 -26 0 -24 2 -25 53
-22 44 3 52 6 52 22 0 15 11 23 45 31 l45 11 3 129 c3 149 -1 177 -26 173 -14
-3 -17 7 -20 55 -3 52 -5 57 -26 57 -24 0 -24 2 -23 98 0 53 0 170 -1 260 l-2
162 -25 0 c-21 0 -25 -5 -26 -32 -1 -18 -1 -41 0 -50 1 -11 -7 -18 -26 -20
-20 -2 -29 -9 -31 -26 -2 -14 -10 -22 -23 -22 -17 0 -19 8 -20 88 0 48 -1 104
-2 124 -2 32 1 37 26 42 21 4 27 11 27 31 0 20 5 25 25 25 20 0 25 5 25 25 0
23 3 25 49 25 l49 0 6 -92 c3 -51 5 -110 5 -130 0 -34 3 -38 26 -38 25 0 25 2
23 52 -3 52 -2 53 25 52 78 -3 77 -3 77 -29 0 -20 5 -25 25 -25 14 0 25 6 26
13 2 34 10 81 15 86 3 3 62 8 130 10 123 3 124 3 124 27 0 21 5 24 34 24 19 0
38 5 42 12 4 6 3 8 -4 5 -14 -9 -28 71 -14 85 5 5 29 8 53 6 l44 -3 3 -77 3
-77 54 -6 c45 -6 55 -11 55 -26 0 -14 7 -19 25 -19 25 0 25 -1 25 -80 0 -79 0
-80 25 -80 24 0 25 -3 25 -55 0 -52 1 -55 25 -55 20 0 25 -5 25 -25 0 -20 5
-25 25 -25 18 0 28 -7 35 -25 6 -15 17 -25 30 -25 15 0 20 -7 21 -27 1 -34 17
-79 18 -50 1 9 6 17 12 17 5 0 7 -4 4 -10 -3 -5 -1 -10 4 -10 6 0 10 -6 9 -13
-2 -6 9 -13 24 -15 24 -3 27 -8 30 -50 l3 -47 77 -3 c73 -3 78 -4 84 -28 3
-13 14 -29 24 -34 10 -6 21 -27 25 -49 5 -30 12 -41 31 -45 17 -5 24 -13 24
-30 0 -17 7 -26 25 -30 16 -4 25 -13 25 -25 0 -16 10 -21 55 -26 30 -4 55 -12
55 -18 0 -7 4 -7 12 1 15 15 28 15 28 1 0 -5 -4 -8 -9 -5 -5 3 -11 -1 -14 -8
-4 -9 1 -15 11 -15 9 -1 52 -4 94 -7 69 -5 77 -8 80 -28 2 -17 13 -22 54 -29
39 -6 53 -13 57 -28 4 -16 14 -19 56 -19 44 0 51 3 51 20 0 13 7 20 19 20 30
0 34 16 21 86 -9 44 -18 68 -31 75 -11 5 -19 20 -19 34 0 20 -5 25 -25 25 -18
0 -25 5 -25 20 0 16 -7 20 -37 21 -61 1 -118 13 -119 27 -1 6 -2 16 -3 21 0 5
-11 11 -23 13 -15 2 -24 11 -26 25 -3 20 -11 22 -83 29 -67 6 -79 9 -79 25 0
12 -9 19 -27 21 -20 2 -29 9 -31 26 -2 14 -10 22 -22 22 -13 0 -20 8 -22 27
-2 20 -9 29 -25 31 -17 3 -23 10 -23 28 0 19 -6 26 -30 31 -28 5 -30 8 -30 54
0 46 -2 49 -25 49 -23 0 -25 3 -25 49 l0 48 -40 7 c-32 5 -40 10 -41 29 -1 21
-1 21 -8 -3 -7 -23 -8 -21 -14 15 -4 22 -7 59 -7 83 0 38 -2 42 -25 42 -17 0
-24 5 -23 17 1 10 0 44 0 76 -2 53 -4 57 -26 57 -21 0 -24 6 -31 55 -6 51 -8
55 -32 55 l-26 0 6 -108 c4 -59 7 -117 7 -129 0 -15 7 -23 23 -25 20 -3 22 -9
25 -85 3 -81 3 -83 27 -83 23 0 25 -4 25 -50 0 -47 2 -50 25 -50 23 0 25 -3
25 -50 0 -47 -2 -50 -25 -50 -20 0 -25 5 -25 25 0 20 -5 25 -25 25 -24 0 -25
3 -25 55 0 52 -1 55 -24 55 -23 0 -25 5 -28 48 l-3 47 -45 2 c-25 1 -54 2 -65
2 -15 1 -16 4 -7 13 8 8 12 52 12 130 l0 118 -25 0 c-20 0 -25 5 -25 25 0 20
5 25 24 25 14 0 27 4 30 9 3 5 15 7 26 4 16 -4 20 0 20 20 0 19 6 26 23 29 14
2 21 9 19 20 -1 9 2 19 8 23 5 3 10 17 10 31 0 23 2 24 74 24 l75 0 3 53 c3
48 5 52 31 55 21 3 27 9 27 28 0 20 5 24 33 26 17 0 39 1 47 2 9 1 16 13 18
29 3 23 0 27 -23 27 -22 0 -26 4 -23 23 3 21 6 22 131 23 126 0 127 0 127 -23
0 -18 -6 -23 -25 -23 -24 0 -25 -3 -25 -54 l0 -53 46 -7 c55 -7 64 -3 64 30 0
21 4 25 23 22 16 -2 22 -9 21 -25 -1 -21 4 -23 52 -23 50 0 53 -1 56 -27 2
-22 9 -29 31 -31 24 -3 27 0 27 27 0 26 4 31 25 31 23 0 25 -3 25 -49 0 -47
-2 -50 -27 -53 -22 -2 -29 -9 -31 -30 l-3 -28 80 0 c79 0 81 -1 81 -24 0 -19
6 -25 28 -28 19 -2 28 -9 30 -25 3 -17 10 -23 28 -23 17 0 24 -6 24 -18 0 -15
13 -21 64 -30 35 -7 82 -12 105 -12 33 0 41 -3 41 -19 0 -23 35 -31 141 -31
78 0 79 0 79 25 0 23 3 25 50 25 l50 0 0 -45 c0 -41 2 -45 25 -45 23 0 25 4
25 45 0 41 2 45 25 45 20 0 25 5 25 24 0 19 6 25 28 28 19 2 28 9 30 25 3 17
10 23 28 23 20 0 24 5 24 30 0 27 3 30 34 30 47 0 66 9 66 30 0 14 12 19 56
25 49 6 55 9 52 28 -2 16 -9 21 -25 19 -20 -3 -23 1 -23 27 0 26 4 31 25 31
22 0 25 4 26 38 1 20 1 43 0 50 -2 11 9 13 74 16 17 1 21 11 27 68 7 77 12 88
39 88 14 0 19 7 19 25 0 14 -3 25 -7 26 -5 0 -41 2 -80 4 l-73 3 0 -53 0 -54
-52 -3 c-50 -3 -53 -5 -56 -31 -2 -15 -8 -25 -13 -21 -23 14 -35 -17 -35 -88
1 -69 2 -73 24 -72 17 0 22 -5 22 -23 0 -20 -5 -24 -22 -21 -15 2 -24 11 -26
26 -3 16 -10 22 -28 22 -13 0 -24 -5 -24 -11 0 -5 -4 -7 -10 -4 -14 9 -13 -8
2 -23 9 -9 6 -12 -16 -12 -23 0 -27 4 -23 19 7 27 -9 31 -124 31 -99 0 -99 0
-99 25 0 14 -3 24 -7 24 -35 -6 -43 2 -43 40 0 52 8 71 31 71 15 0 19 7 19 34
0 18 3 55 7 81 l6 47 -84 -3 c-84 -4 -84 -4 -84 21 0 18 -6 26 -22 28 -17 3
-23 10 -23 28 0 22 -3 24 -55 24 -52 0 -55 -1 -55 -25 0 -20 -5 -25 -25 -25
-23 0 -25 3 -25 49 0 48 0 48 38 54 20 4 54 4 74 1 34 -6 37 -5 40 22 l3 29
83 3 82 3 0 49 0 50 44 0 c50 0 76 7 76 22 0 5 -4 6 -10 3 -6 -3 -10 0 -10 7
0 9 16 14 50 15 37 2 50 -1 50 -12 0 -7 -6 -16 -12 -18 -7 -3 2 -8 20 -12 32
-8 45 -25 17 -25 -8 0 -15 -7 -15 -15 0 -8 9 -15 20 -15 15 0 20 7 20 25 0 21
5 25 30 25 25 0 30 4 30 25 0 34 47 37 52 3 2 -15 11 -24 24 -26 19 -3 23 3
29 47 l7 51 49 0 c42 0 49 -3 49 -20 0 -19 9 -24 36 -21 7 1 15 -22 19 -54 l6
-55 50 0 49 0 0 -79 c0 -75 -1 -80 -22 -83 -15 -2 -24 -11 -26 -27 -3 -20 0
-23 17 -18 12 3 24 1 27 -4 3 -5 16 -9 30 -9 20 0 24 -5 24 -30 0 -16 -4 -30
-10 -30 -5 0 -10 -8 -10 -17 0 -15 2 -16 10 -3 7 11 10 4 10 -27 0 -39 2 -43
25 -43 21 0 25 -5 25 -30 0 -25 -4 -30 -25 -30 -18 0 -25 -5 -25 -20 0 -17 7
-20 58 -22 31 -1 78 -1 103 0 l47 2 7 -55 6 -55 45 0 c40 0 44 2 44 25 0 21 5
25 29 25 23 0 30 -5 33 -22 3 -20 10 -23 56 -26 43 -3 52 -6 52 -22 0 -33 -11
-48 -31 -43 -15 4 -19 0 -19 -20 0 -19 5 -25 18 -23 20 4 47 -20 32 -29 -6 -3
-10 -21 -10 -40 0 -27 -4 -34 -22 -37 -15 -2 -24 -11 -26 -25 -2 -13 -4 -23
-5 -24 -1 0 -22 -3 -47 -5 -25 -3 -48 -10 -51 -16 -12 -19 2 -38 27 -38 22 0
24 -4 24 -53 0 -49 2 -54 22 -53 15 1 24 -6 28 -24 3 -15 15 -26 30 -30 14 -3
25 -11 25 -17 0 -6 3 -14 6 -17 10 -10 363 -24 387 -15 18 7 24 5 29 -9 4 -9
11 -20 17 -24 17 -12 356 -10 356 2 0 6 9 10 19 10 10 0 21 7 25 15 3 8 15 15
26 15 18 0 20 6 20 81 0 61 -3 78 -12 73 -9 -6 -9 -3 1 9 15 19 7 52 -10 41
-7 -4 -8 -9 -1 -13 6 -4 4 -11 -4 -19 -12 -11 -14 -6 -14 34 0 37 3 45 15 40
18 -6 19 -1 5 24 -10 19 -11 19 -30 0 -36 -36 -44 -22 -43 72 0 12 -8 18 -24
18 -23 0 -23 2 -23 105 0 58 4 105 9 105 13 0 2 37 -15 51 -8 6 -14 29 -14 51
0 28 -5 40 -17 45 -25 9 -33 23 -33 60 0 26 -5 33 -31 42 -18 6 -39 11 -49 11
-10 0 -26 20 -41 53 -19 42 -29 53 -51 55 -24 3 -28 0 -28 -22 0 -14 -11 -36
-25 -50 -21 -21 -25 -35 -25 -81 0 -52 -1 -55 -25 -55 -24 0 -25 3 -25 55 0
52 1 55 25 55 16 0 25 6 25 15 0 8 6 15 13 15 9 0 9 2 0 8 -6 4 -13 32 -15 62
-3 48 -6 55 -25 58 -21 3 -23 9 -23 61 0 32 -3 79 -6 105 -6 40 -10 46 -30 46
-19 0 -24 5 -24 25 0 20 -5 25 -25 25 l-25 0 0 -185 0 -185 -49 0 c-47 0 -50
-2 -53 -27 -2 -22 -8 -28 -28 -28 -20 0 -26 6 -28 28 -3 21 -9 27 -28 27 -19
0 -24 5 -24 25 0 21 -5 25 -30 25 -25 0 -30 4 -30 25 0 20 -5 25 -25 25 -24 0
-25 3 -25 56 0 55 -1 56 -25 52 -24 -5 -25 -4 -25 52 0 56 -1 57 -25 52 -22
-4 -25 -1 -25 27 0 26 -4 31 -25 31 -20 0 -25 -5 -25 -25 0 -21 -5 -25 -30
-25 -24 0 -30 4 -30 21 0 16 -5 20 -20 16 -10 -3 -21 0 -24 7 -2 6 -5 -1 -5
-16 -1 -25 -4 -27 -53 -30 -49 -3 -53 -5 -56 -30 -3 -26 -6 -28 -53 -28 -46 0
-49 2 -49 25 0 20 5 25 25 25 21 0 25 5 25 29 0 23 -5 30 -22 33 -21 3 -23 9
-26 71 -2 37 2 75 7 85 6 9 11 12 11 5 0 -26 30 0 30 27 0 24 -3 27 -27 22
-25 -5 -27 -4 -14 11 9 11 10 17 2 17 -6 0 -11 7 -11 15 0 9 -10 15 -22 16
-22 1 -22 1 2 9 l25 7 -27 11 c-26 11 -28 16 -28 67 l0 55 75 0 c67 0 75 2 75
19 0 56 -41 95 -53 51 -7 -27 -47 -27 -47 0 0 16 -9 21 -51 26 -38 5 -53 12
-56 25 -6 23 -53 26 -53 4 0 -9 -9 -15 -24 -15 -18 0 -25 6 -28 23 -2 18 -10
23 -45 25 -22 2 -56 -1 -75 -6 -38 -9 -52 -42 -19 -42 12 0 21 6 21 13 0 9 2
9 8 0 4 -7 30 -14 57 -15 l50 -3 3 -52 c3 -49 5 -53 28 -53 23 0 24 -2 24 -80
0 -79 0 -80 25 -80 l25 0 0 -105 0 -105 -50 0 c-49 0 -55 5 -51 38 1 7 -9 12
-24 12 -20 0 -25 -5 -25 -25 0 -21 -5 -25 -30 -25 -25 0 -30 4 -30 25 0 23 -3
25 -49 25 l-48 0 -6 83 c-11 137 -11 137 22 137 20 0 30 6 34 20 3 12 14 20
26 20 17 0 21 6 21 30 0 25 -4 30 -24 30 -23 0 -25 4 -28 53 l-3 52 -105 2
c-58 2 -151 0 -207 -3 -95 -5 -102 -7 -105 -27 -2 -16 -10 -22 -28 -22 -21 0
-26 5 -28 31 -3 27 -6 30 -28 26 -19 -3 -24 0 -24 16 0 18 9 21 105 27 102 7
105 8 105 31 0 19 -5 24 -25 24 -20 0 -25 5 -25 25 0 20 5 25 25 25 20 0 25 5
25 25 0 20 -5 25 -25 25 -18 0 -25 -5 -25 -19 0 -27 -12 -32 -59 -25 -31 5
-41 12 -45 30 -6 24 -7 24 -149 24 -78 0 -159 -3 -180 -7 l-38 -6 3 -63 c2
-53 5 -62 20 -61 11 1 16 7 14 14 -3 7 -1 13 3 13 5 0 11 -7 15 -15 3 -8 2
-15 -2 -15 -5 0 -6 -16 -4 -35 4 -32 2 -35 -22 -35 -21 0 -26 5 -26 24 0 15 7
26 18 28 9 3 -18 2 -61 0 l-78 -5 7 27 6 27 -78 -3 c-73 -3 -79 -5 -82 -25 -3
-19 1 -23 22 -23 21 0 26 -5 26 -24 0 -20 6 -24 46 -30 26 -3 62 -6 80 -6 l34
0 0 -50 0 -50 -42 -1 c-24 -1 -46 -1 -50 0 -5 0 -8 -24 -8 -54 0 -52 1 -55 25
-55 20 0 25 -5 25 -25 0 -24 -3 -25 -55 -25 -52 0 -55 -1 -55 -25 0 -20 -5
-25 -25 -25 -24 0 -25 -3 -25 -55 0 -52 1 -55 25 -55 20 0 25 -5 25 -25 0 -20
-5 -25 -25 -25 -20 0 -25 -5 -25 -25 0 -19 -5 -25 -21 -25 -11 0 -17 4 -14 10
3 6 1 10 -5 10 -7 0 -10 7 -6 15 4 12 -3 15 -29 15 -38 0 -45 -15 -34 -67 l7
-33 -84 0 c-46 0 -84 4 -84 9 0 5 -3 16 -6 24 -4 11 2 15 23 14 80 -3 115 3
109 19 -3 8 -2 12 4 9 6 -3 10 -2 10 3 0 15 -27 22 -86 22 -39 0 -54 -4 -54
-14 0 -7 -7 -19 -15 -26 -12 -10 -16 -9 -21 5 -4 10 -1 21 7 26 15 9 -13 12
-83 9 l-37 -1 -3 48 c-3 40 -6 48 -23 48 -18 0 -20 -8 -23 -78 -3 -77 -3 -77
23 -77 18 0 25 -5 25 -19 0 -28 -11 -32 -64 -25 -40 6 -46 10 -46 30 0 19 -5
24 -25 24 -20 0 -25 -5 -25 -25 0 -20 -5 -25 -25 -25 -20 0 -25 5 -25 25 0 20
5 25 24 25 14 0 28 5 31 10 3 6 1 10 -6 10 -22 0 4 18 31 22 22 3 26 9 30 58
4 47 8 55 25 55 17 0 20 8 23 52 3 50 2 52 -25 55 -20 2 -29 9 -31 26 -3 16
-10 22 -28 22 -22 0 -25 4 -22 28 2 19 9 28 26 30 34 5 31 52 -3 52 -20 0 -25
5 -25 25 0 20 -5 25 -25 25 -24 0 -30 -9 -26 -37 1 -8 -9 -13 -24 -13 -20 0
-25 5 -25 25 0 20 5 25 26 25 23 0 25 4 24 33 -4 68 -1 76 28 79 19 2 28 9 30
26 3 21 0 22 -52 22 -53 0 -56 -1 -56 -25 0 -23 -4 -25 -42 -25 -29 0 -38 3
-29 9 20 13 5 41 -21 40 l-23 0 23 -9 c27 -12 29 -20 2 -13 -16 4 -19 2 -14
-11 5 -12 0 -16 -19 -16 -13 0 -39 -3 -56 -6 -29 -6 -31 -5 -31 25 l0 31 -105
0 -105 0 0 25 c0 18 5 25 18 25 25 0 31 7 25 31 -5 17 -13 20 -52 17 -38 -3
-46 -6 -46 -23 0 -14 -8 -21 -27 -23 -22 -3 -28 -9 -28 -28 0 -20 -5 -24 -30
-24 -25 0 -30 4 -30 24 0 21 -6 25 -46 31 -51 7 -58 4 -59 -28 0 -19 -6 -22
-47 -25 -46 -3 -48 -2 -48 22 0 24 3 26 44 26 53 0 60 9 51 58 l-8 37 -9 -28
c-12 -33 -28 -26 -27 11 0 15 3 21 6 15 3 -10 8 -10 19 1 7 8 19 16 25 18 22
7 -1 48 -27 48 -22 0 -24 4 -24 50 0 47 -2 50 -25 50 -20 0 -25 -5 -25 -26 0
-26 -1 -27 -46 -20 -26 3 -62 6 -80 6 -27 0 -34 4 -34 20 0 19 -7 20 -135 20
-128 0 -135 -1 -135 -20 0 -15 -7 -20 -25 -20 l-25 0 0 155 0 155 -25 0 c-24
0 -24 2 -27 83 -3 76 -5 82 -23 79 -11 -2 -21 -5 -22 -5 -2 -3 -5 -135 -4
-174 1 -28 5 -33 26 -33 25 0 25 -1 25 -80 0 -77 -1 -80 -24 -80 -19 0 -24 -6
-30 -37 -3 -21 -6 -57 -6 -80 l0 -43 -50 0 c-47 0 -50 -2 -50 -25 0 -17 -5
-25 -18 -25 -29 0 -68 -22 -78 -45 -7 -14 -21 -21 -54 -25 -42 -5 -45 -7 -56
-45 -11 -39 -11 -40 -62 -43 -48 -3 -52 -5 -52 -28 0 -17 -5 -24 -20 -24 -13
0 -20 7 -20 20 0 19 -5 21 -57 18 l-58 -3 -3 -42 c-2 -26 -8 -43 -16 -43 -35
0 -66 -26 -71 -60 -9 -55 -33 -94 -67 -109 -36 -16 -61 -6 -66 28 -6 37 -27
17 -30 -28 -3 -36 0 -43 17 -48 18 -4 21 -13 21 -54 l0 -49 -45 0 -45 0 0 -44
c0 -57 -8 -76 -30 -76 -12 0 -20 -9 -22 -22 -2 -15 -11 -24 -25 -26 -14 -2
-23 -11 -25 -25 -3 -20 -8 -22 -62 -20 -32 1 -60 4 -63 7 -3 2 -5 43 -6 89 -2
80 -4 87 -30 111 l-28 26 3 274 c3 253 4 276 22 295 11 12 15 21 11 21 -4 0 0
9 10 20 11 13 15 27 11 44 -3 13 -3 45 1 71 4 36 11 49 28 55 19 7 23 19 29
79 6 57 11 71 27 76 14 5 19 15 19 45 0 48 8 70 25 70 24 0 31 21 34 103 1 29
6 39 24 46 21 8 22 15 25 122 1 62 7 129 12 149 5 19 7 73 4 120 -2 47 -7 186
-10 310 -5 170 -9 227 -19 235 -25 19 -37 201 -34 504 4 264 6 291 23 309 15
18 19 44 24 187 5 163 6 167 29 178 20 9 23 17 23 61 0 28 3 82 7 120 5 55 10
70 25 74 15 4 18 15 18 78 0 70 2 75 25 86 31 14 39 38 31 93 -4 26 -3 46 4
50 5 3 10 18 10 32 0 16 7 27 20 30 15 4 20 14 20 42 0 69 12 113 32 119 12 3
18 13 18 32 0 68 13 118 31 123 15 4 19 15 19 49 0 49 6 60 38 77 19 10 22 20
22 66 0 51 16 85 41 85 5 0 9 13 9 28 0 32 16 53 36 45 9 -3 14 7 16 34 2 30
8 39 24 41 17 2 23 13 30 55 7 43 13 53 32 55 13 2 22 10 22 22 0 10 11 25 25
34 19 12 25 25 25 51 0 27 5 38 23 46 13 6 27 20 32 32 6 12 21 24 34 25 13 2
25 12 28 22 3 12 18 20 48 25 34 5 44 11 47 27 2 15 13 24 34 30 18 4 34 16
36 26 5 19 45 32 94 32 14 0 30 10 40 25 10 15 26 25 40 25 17 0 24 6 24 20 0
15 7 20 24 20 14 0 28 5 31 10 3 6 15 10 26 10 10 0 19 7 19 15 0 17 30 35 58
35 10 0 29 11 42 25 13 14 30 25 37 25 7 0 18 11 23 25 6 15 17 25 29 25 13 0
21 8 23 23 2 12 13 26 25 32 12 5 24 18 27 28 2 10 13 21 24 24 11 2 24 15 30
28 6 13 20 26 31 30 13 4 21 15 21 28 0 41 12 67 30 67 11 0 20 10 23 29 4 17
14 32 26 36 21 6 31 33 31 88 0 30 -4 37 -19 37 -11 0 -23 -9 -26 -20z m-370
-5425 c0 -80 0 -80 -27 -83 -25 -3 -28 0 -28 27 0 26 -4 31 -25 31 -23 0 -25
3 -25 49 0 46 2 50 28 54 15 2 38 4 52 3 24 -1 25 -3 25 -81z m505 -35 c0 -5
-5 -10 -12 -10 -6 0 -9 -2 -6 -5 8 -9 38 6 32 16 -3 5 11 9 30 9 32 0 36 -3
36 -25 0 -23 -3 -25 -49 -25 -51 0 -67 10 -57 35 6 17 26 20 26 5z m1542 -9
c8 12 9 12 6 0 -7 -25 -28 -24 -27 1 1 19 2 20 6 4 4 -15 7 -16 15 -5z m-1726
-42 c4 -8 9 -8 13 -1 4 7 12 8 21 2 10 -7 11 -10 3 -10 -7 0 -13 -5 -13 -11 0
-5 5 -7 10 -4 6 3 10 1 10 -4 0 -6 -9 -11 -19 -11 -20 0 -37 -32 -26 -50 3 -5
17 -10 30 -10 19 0 23 -4 18 -17 -5 -15 -3 -14 10 2 14 17 18 18 27 5 15 -23
12 -30 -12 -31 -16 -1 -12 -4 12 -9 19 -5 37 -7 39 -5 5 6 31 -22 31 -34 0 -5
21 -11 48 -13 39 -2 48 -7 50 -24 3 -20 -3 -21 -110 -27 -192 -11 -198 -11
-198 18 0 24 -3 25 -55 25 -52 0 -55 -1 -55 -25 0 -20 -5 -25 -25 -25 -20 0
-25 -5 -25 -25 0 -20 -5 -25 -25 -25 -21 0 -25 5 -25 30 0 25 4 30 25 30 20 0
25 5 25 25 0 23 -3 25 -50 25 l-50 0 0 49 c0 47 2 50 28 53 15 2 26 8 25 13 0
6 6 16 14 24 13 12 14 11 8 -8 -4 -15 -3 -21 7 -19 9 2 14 -13 16 -54 3 -54 5
-58 27 -58 23 0 25 4 25 49 0 47 2 50 28 53 19 2 28 9 30 26 3 16 10 22 28 22
18 0 24 5 24 23 0 13 3 27 7 30 10 11 41 8 49 -4z m152 -21 c-2 -15 -11 -24
-25 -26 -19 -3 -23 1 -23 22 0 21 5 26 26 26 21 0 25 -4 22 -22z m268 0 c-2
-16 -11 -24 -29 -26 -21 -3 -27 -9 -27 -28 0 -22 -4 -24 -50 -24 -47 0 -50 2
-50 25 0 23 3 25 50 25 47 0 50 2 50 25 0 21 5 25 30 25 25 0 29 -3 26 -22z
m1364 0 c0 -17 -3 -19 -9 -9 -5 7 -15 10 -22 7 -8 -4 -5 0 5 8 25 20 26 20 26
-6z m-3010 -103 c0 -18 -5 -25 -20 -25 -15 0 -20 7 -20 25 0 18 5 25 20 25 15
0 20 -7 20 -25z m1427 19 c-3 -3 -12 -4 -19 -1 -8 3 -5 6 6 6 11 1 17 -2 13
-5z m1479 -26 c-3 -17 -8 -34 -11 -36 -10 -10 -35 22 -35 44 0 19 5 24 26 24
24 0 26 -3 20 -32z m197 25 c-7 -3 -13 -12 -13 -21 0 -15 2 -15 11 -2 9 13 10
13 6 0 -2 -8 -12 -17 -22 -19 -13 -2 -16 1 -12 13 4 9 2 16 -4 16 -21 0 0 16
23 17 13 0 17 -1 11 -4z m487 -25 c0 -5 -2 -8 -4 -8 -2 0 -11 -3 -19 -6 -8 -3
-17 1 -20 9 -4 11 1 14 19 13 13 0 24 -4 24 -8z m-210 -48 c0 -25 -4 -30 -25
-30 -21 0 -25 5 -25 30 0 25 4 30 25 30 21 0 25 -5 25 -30z m-648 -12 c-8 -8
-9 -4 -5 13 4 13 8 18 11 10 2 -7 -1 -18 -6 -23z m68 -38 c0 -25 -4 -30 -25
-30 -20 0 -25 5 -25 24 0 22 10 30 43 35 4 0 7 -12 7 -29z m472 -24 c-1 -27
-4 -52 -7 -54 -7 -8 -75 9 -75 18 0 5 6 7 13 4 8 -3 14 2 14 11 0 9 -9 15 -24
15 -18 0 -23 6 -23 24 0 20 6 25 33 29 69 9 72 7 69 -47z m368 29 c0 -20 -5
-25 -25 -25 -33 0 -35 37 -2 43 12 2 23 5 25 6 1 0 2 -10 2 -24z m-1840 -59
c0 -13 3 -26 8 -29 4 -2 1 -2 -6 0 -8 1 -22 3 -33 3 -14 0 -19 7 -19 25 0 20
5 25 25 25 20 0 25 -5 25 -24z m-630 -51 c0 -24 -3 -25 -55 -25 -47 0 -55 3
-55 18 0 28 9 32 62 32 45 0 48 -2 48 -25z m-214 -52 c1 -18 -4 -23 -22 -23
-19 0 -24 5 -24 26 0 21 4 25 23 22 15 -2 22 -10 23 -25z m2314 1 c0 -17 -6
-24 -19 -24 -15 0 -20 -10 -26 -55 l-6 -55 -51 0 -50 0 3 73 c4 82 7 84 102
84 43 0 47 -2 47 -23z m-1120 -59 c0 -8 -4 -15 -10 -15 -5 0 -7 7 -4 15 4 8 8
15 10 15 2 0 4 -7 4 -15z m-880 -75 c0 -47 -2 -50 -25 -50 -23 0 -25 3 -25 50
0 47 2 50 25 50 23 0 25 -3 25 -50z m1684 -16 c8 -21 -1 -34 -25 -34 -12 0
-19 7 -19 18 0 34 33 45 44 16z m106 -9 c0 -18 -5 -25 -20 -25 -15 0 -20 7
-20 25 0 18 5 25 20 25 15 0 20 -7 20 -25z m-2370 -50 c0 -20 -5 -25 -25 -25
-21 0 -25 -5 -25 -31 0 -27 -3 -30 -27 -27 -22 2 -28 8 -28 28 0 20 6 26 28
28 21 3 27 9 27 28 0 19 5 24 25 24 20 0 25 -5 25 -25z m1610 7 c0 -17 -25
-32 -52 -32 -21 0 -28 5 -28 20 0 17 7 20 40 20 22 0 40 -4 40 -8z m978 -64
c3 -22 8 -28 28 -28 21 0 25 -4 22 -22 -2 -19 -11 -24 -50 -28 -47 -6 -48 -5
-48 21 0 20 -6 28 -25 31 -33 7 -35 3 -35 -59 0 -50 -1 -53 -25 -51 -24 2 -25
4 -25 81 l0 78 50 -2 c27 -2 53 1 57 5 17 16 48 1 51 -26z m-1430 -53 c-2 -19
-8 -25 -25 -25 -18 0 -23 -6 -23 -26 0 -20 -4 -25 -22 -22 -19 3 -22 10 -25
51 l-3 47 50 0 c47 0 50 -1 48 -25z m1050 3 c-2 -13 -10 -23 -18 -23 -8 0 -16
10 -18 23 -3 17 2 22 18 22 16 0 21 -5 18 -22z m-518 -131 c0 -49 -2 -53 -25
-55 -14 -1 -25 2 -25 7 0 5 -12 8 -26 6 -21 -2 -25 1 -21 16 4 15 0 19 -21 19
-36 0 -54 13 -46 33 6 17 32 23 112 26 l52 1 0 -53z m208 -2 c1 -28 5 -57 9
-65 3 -8 5 -20 4 -27 -1 -6 8 -13 20 -15 14 -2 23 -11 26 -26 3 -22 0 -23 -49
-20 l-53 3 -3 89 c-4 100 1 119 25 114 14 -2 19 -15 21 -53z m162 -25 c0 -72
2 -80 19 -80 17 0 31 -18 31 -41 0 -5 -22 -9 -50 -9 l-50 0 0 105 0 105 25 0
c25 0 25 -1 25 -80z m-550 44 c0 -8 -7 -14 -15 -14 -15 0 -21 21 -9 33 10 9
24 -2 24 -19z m-1190 -49 c0 -20 5 -25 25 -25 20 0 25 5 25 25 0 21 5 25 30
25 25 0 30 -4 30 -25 0 -18 5 -25 20 -25 13 0 20 -7 20 -19 0 -24 -10 -27 -87
-30 -62 -2 -63 -2 -63 23 0 24 -3 26 -50 26 -47 0 -50 2 -50 25 0 23 3 25 50
25 47 0 50 -2 50 -25z m-217 -55 c-4 -17 2 -19 53 -22 54 -3 59 -5 62 -27 3
-19 6 -21 13 -10 6 10 9 10 9 2 0 -7 7 -13 15 -13 12 0 15 -15 15 -74 0 -40
-3 -87 -6 -105 -6 -28 -11 -31 -55 -37 -39 -5 -49 -10 -49 -25 0 -24 -20 -25
-21 -1 -1 16 -2 16 -6 0 -2 -10 -9 -18 -15 -18 -6 0 -8 9 -5 20 4 17 -2 20
-54 26 -54 6 -59 9 -59 30 0 19 -5 24 -25 24 -20 0 -25 5 -25 25 0 20 -5 25
-25 25 -14 0 -25 6 -25 13 0 22 18 40 34 34 12 -5 16 0 16 23 0 25 4 30 25 30
21 0 25 5 25 30 0 27 3 30 30 30 25 0 30 4 30 24 0 19 4 22 24 19 17 -4 22
-10 19 -23z m527 5 c0 -18 -5 -25 -20 -25 -15 0 -20 7 -20 25 0 18 5 25 20 25
15 0 20 -7 20 -25z m1053 -8 c3 -7 -3 -13 -14 -14 -12 -1 -16 3 -12 13 6 18
19 18 26 1z m-2047 -99 l2 -78 -54 0 -54 0 0 55 c0 52 1 55 25 55 20 0 25 5
25 26 0 22 4 25 27 22 27 -3 28 -4 29 -80z m624 66 c0 -2 -7 -4 -15 -4 -8 0
-15 4 -15 10 0 5 7 7 15 4 8 -4 15 -8 15 -10z m2220 -8 c0 -21 6 -24 49 -30
43 -6 49 -9 54 -35 5 -23 10 -28 31 -26 23 3 26 -1 26 -26 0 -17 -4 -28 -9
-25 -5 3 -12 -5 -15 -19 -7 -27 -5 -26 -138 -30 l-48 -2 0 54 c0 50 1 53 25
53 20 0 25 5 25 25 0 20 -5 25 -25 25 -21 0 -25 5 -25 30 0 25 4 30 25 30 20
0 25 -5 25 -24z m-3902 -83 c3 -51 2 -53 -22 -53 -25 0 -26 3 -26 56 0 52 1
55 23 52 19 -3 22 -10 25 -55z m2558 38 c15 13 19 2 6 -19 -12 -18 -42 -4 -35
16 5 11 8 12 11 4 3 -10 7 -10 18 -1z m3294 -41 c0 -49 0 -50 31 -50 28 0 31
-3 27 -24 -4 -21 -1 -25 21 -28 23 -3 27 -8 31 -53 4 -42 8 -50 25 -50 14 0
21 -8 23 -27 3 -28 2 -28 -52 -28 -53 0 -56 1 -56 25 0 20 -5 25 -25 25 -20 0
-25 5 -25 25 0 20 -5 25 -25 25 -21 0 -25 5 -25 30 0 17 -5 30 -12 30 -9 0 -8
4 2 10 10 6 11 10 3 10 -20 0 -28 -4 -25 -12 1 -5 -2 -8 -8 -8 -11 0 -13 11
-4 34 3 9 15 16 25 16 16 0 19 8 19 50 0 47 2 50 25 50 23 0 25 -3 25 -50z
m-1116 25 c-4 -8 -13 -15 -21 -15 -13 0 -13 3 -3 15 7 8 16 15 21 15 5 0 6 -7
3 -15z m-4031 -60 c-3 -9 -2 -15 3 -14 5 1 26 1 47 0 l37 -1 0 -105 c0 -105 0
-105 -25 -105 -23 0 -24 3 -27 78 -3 71 -5 77 -25 80 -19 3 -23 10 -23 43 0
21 4 39 10 39 5 0 7 -7 3 -15z m4307 -40 c0 -20 -5 -25 -25 -25 -20 0 -25 5
-25 25 0 20 5 25 25 25 20 0 25 -5 25 -25z m-1270 -55 c0 -16 -7 -20 -30 -20
-23 0 -30 4 -30 20 0 16 7 20 30 20 23 0 30 -4 30 -20z m1580 0 c0 -15 -7 -20
-25 -20 -18 0 -25 5 -25 20 0 15 7 20 25 20 18 0 25 -5 25 -20z m-1660 1 c0
-6 -4 -13 -10 -16 -5 -3 -10 1 -10 9 0 9 5 16 10 16 6 0 10 -4 10 -9z m-3514
-66 c1 -8 -2 -13 -7 -9 -5 3 -9 12 -9 21 0 19 13 9 16 -12z m1174 -65 l0 -50
-56 0 -55 0 3 48 c3 42 6 47 28 50 14 2 29 8 34 12 5 5 17 5 28 -1 14 -7 18
-21 18 -59z m-1203 18 c-3 -8 -6 -5 -6 6 -1 11 2 17 5 13 3 -3 4 -12 1 -19z
m3383 -3 c11 -13 10 -14 -4 -9 -9 3 -16 10 -16 15 0 13 6 11 20 -6z m400 -40
c0 -20 -5 -25 -25 -25 -20 0 -25 -5 -25 -25 0 -14 -4 -25 -9 -25 -5 0 -16 -3
-24 -6 -11 -4 -16 2 -19 23 -2 22 -9 29 -30 31 -19 2 -28 9 -28 21 0 28 9 31
87 31 71 0 73 -1 73 -25z m-1852 -52 c-7 -37 -148 -38 -148 -2 0 17 8 19 76
19 66 0 75 -2 72 -17z m1582 3 c0 -8 -4 -18 -10 -21 -5 -3 -10 -1 -10 4 0 6
-5 11 -11 11 -5 0 -7 -4 -4 -10 4 -6 -8 -10 -29 -10 -29 0 -36 4 -36 20 0 17
7 20 50 20 37 0 50 -4 50 -14z m110 -6 c0 -15 -7 -20 -25 -20 -18 0 -25 5 -25
20 0 15 7 20 25 20 18 0 25 -5 25 -20z m628 -33 c3 -41 1 -47 -17 -47 -27 0
-32 12 -25 60 5 30 11 40 23 38 11 -2 17 -16 19 -51z m-2530 -22 l-5 -25 113
0 114 0 0 25 c0 23 3 25 50 25 l50 0 0 -55 c0 -54 -1 -55 -24 -49 -21 5 -25 2
-28 -23 -2 -20 -9 -29 -25 -31 -15 -2 -23 -10 -23 -23 0 -15 -7 -19 -32 -20
-44 -1 -128 -7 -155 -10 -14 -2 -23 -10 -23 -20 0 -10 10 -19 23 -22 12 -2
-13 -5 -55 -6 l-78 -1 0 76 c0 66 2 75 18 72 46 -7 61 55 17 72 -44 17 -31 40
21 40 44 0 46 -1 42 -25z m1852 0 c0 -20 -5 -25 -25 -25 -20 0 -25 5 -25 25 0
20 5 25 25 25 20 0 25 -5 25 -25z m-2952 -77 c-3 -46 -6 -53 -25 -56 -14 -2
-23 -11 -25 -25 -2 -16 -11 -23 -30 -25 -19 -2 -28 -9 -28 -21 0 -20 -26 -31
-72 -31 -23 0 -28 -4 -28 -25 0 -24 -2 -25 -74 -25 -82 0 -88 5 -78 68 4 29 7
32 41 32 69 0 111 11 111 30 0 13 12 19 50 24 45 6 50 9 50 31 0 20 5 25 25
25 23 0 31 13 26 43 0 4 13 7 30 7 l30 0 -3 -52z m1777 32 c-17 -7 -17 -9 -2
-9 23 -1 22 -21 -1 -21 -24 0 -32 8 -25 26 3 8 15 14 27 13 20 0 20 -1 1 -9z
m-91 -52 c0 -10 -1 -45 -2 -78 -2 -51 -5 -60 -21 -60 -16 0 -19 10 -24 73 -2
39 -3 75 -1 78 2 4 14 6 26 5 15 -1 23 -7 22 -18z m146 2 c0 -5 -8 -10 -17
-10 -15 0 -16 2 -3 10 19 12 20 12 20 0z m2910 -116 c0 -21 -4 -25 -22 -22
-15 2 -24 11 -26 26 -3 18 1 22 22 22 21 0 26 -5 26 -26z m-5110 -234 l0 -50
-50 0 c-43 0 -50 3 -50 20 0 21 20 29 20 8 1 -23 30 25 30 49 0 18 6 23 25 23
23 0 25 -3 25 -50z m2127 25 c0 -8 -4 -15 -9 -15 -10 0 -11 14 -1 23 9 10 10
9 10 -8z m663 -580 c0 -20 -5 -25 -24 -25 -18 0 -23 5 -23 25 0 20 5 25 23 25
19 0 24 -5 24 -25z"/>
<path d="M6570 10257 c0 -9 4 -18 9 -21 5 -4 8 1 7 9 -3 21 -16 31 -16 12z"/>
<path d="M6710 10254 c-11 -13 -10 -16 8 -21 32 -8 27 -18 -10 -19 -18 -1 -34
-6 -36 -13 -2 -6 -8 -9 -13 -5 -5 3 -9 -2 -9 -10 0 -13 12 -16 60 -16 57 0 60
-1 50 -19 -16 -31 -12 -32 16 -5 29 30 29 67 0 72 -26 5 -49 29 -41 42 10 16
-11 12 -25 -6z"/>
<path d="M6544 10244 c3 -9 6 -18 6 -20 0 -2 5 -4 11 -4 8 0 9 4 0 13 -6 8 -8
17 -4 20 3 4 1 7 -6 7 -8 0 -11 -6 -7 -16z"/>
<path d="M6860 10230 c0 -5 5 -10 11 -10 5 0 7 5 4 10 -3 6 -8 10 -11 10 -2 0
-4 -4 -4 -10z"/>
<path d="M5910 10196 c0 -21 5 -26 26 -26 21 0 25 4 22 23 -2 14 -11 23 -25
25 -19 3 -23 -1 -23 -22z"/>
<path d="M5850 10145 c0 -20 -5 -25 -25 -25 -18 0 -25 5 -25 20 0 15 -7 20
-25 20 -19 0 -25 -5 -25 -22 0 -21 0 -21 16 -2 13 16 15 16 10 2 -3 -12 0 -18
9 -18 10 0 15 -10 15 -30 0 -25 -4 -30 -25 -30 -20 0 -25 5 -25 25 0 20 -5 25
-25 25 -20 0 -25 -5 -25 -25 0 -21 -5 -25 -30 -25 -25 0 -30 -4 -30 -25 0 -20
-5 -25 -25 -25 -21 0 -25 -5 -25 -30 0 -25 -4 -30 -25 -30 -23 0 -25 -3 -25
-50 0 -47 2 -50 25 -50 20 0 25 -5 25 -25 0 -20 -5 -25 -25 -25 -20 0 -25 -5
-25 -25 0 -20 -5 -25 -23 -25 -31 0 -35 -5 -29 -35 3 -20 10 -25 34 -25 25 0
28 3 23 20 -4 14 -1 22 10 27 22 8 35 -13 35 -58 l0 -37 -105 -1 -105 -2 0 80
c0 75 -1 80 -22 83 -15 2 -24 11 -26 26 -2 12 0 22 5 21 27 -5 43 3 43 21 0
27 -36 27 -43 -1 -3 -11 -14 -23 -25 -26 -28 -7 -37 -43 -11 -43 14 0 19 -7
19 -25 0 -18 -5 -25 -20 -25 -11 0 -23 7 -26 15 -4 8 -11 15 -18 15 -13 0 -36
-46 -36 -72 0 -10 -3 -17 -7 -17 -29 5 -47 -8 -85 -58 -42 -56 -73 -127 -62
-145 3 -4 14 -8 25 -8 14 0 19 -7 19 -25 0 -20 -5 -25 -25 -25 -20 0 -25 5
-25 25 0 20 -5 25 -25 25 -14 0 -35 -10 -47 -22 l-23 -23 48 -3 47 -3 0 -53 0
-52 80 0 c77 0 79 0 82 25 2 18 9 26 23 26 14 0 21 8 23 28 3 23 0 27 -22 27
-21 0 -26 5 -26 24 0 21 6 24 50 30 41 5 50 10 50 26 0 15 -7 20 -25 20 -21 0
-25 5 -25 30 0 27 3 30 30 30 26 0 30 4 30 26 0 21 4 25 23 22 16 -2 23 -11
25 -30 3 -22 9 -28 28 -28 22 0 24 -4 24 -44 0 -25 4 -47 8 -50 5 -3 41 -2 80
1 67 6 72 7 72 29 0 13 3 23 8 23 29 -5 42 3 42 26 0 20 5 25 24 25 19 0 25 6
28 28 3 26 5 27 51 25 44 -2 47 -1 47 22 0 22 -9 30 -32 26 -5 0 -8 3 -8 9 0
6 -9 6 -25 0 -23 -9 -25 -7 -25 16 0 25 -2 26 -55 22 l-55 -3 0 33 c0 27 3 32
25 32 20 0 25 5 25 25 0 20 -5 25 -25 25 -21 0 -25 5 -25 30 0 25 4 30 23 30
20 0 25 7 33 48 7 37 13 47 29 47 14 0 21 8 23 28 3 21 9 27 28 27 19 0 24 -5
24 -25 0 -20 5 -25 25 -25 20 0 25 5 25 25 0 20 5 25 24 25 19 0 25 6 28 28 2
19 9 28 26 30 34 5 31 52 -3 52 -20 0 -25 -5 -25 -25z m-70 -475 c0 -5 -5 -10
-11 -10 -5 0 -7 5 -4 10 3 6 8 10 11 10 2 0 4 -4 4 -10z m-566 -46 c8 -21 -1
-34 -25 -34 -14 0 -19 7 -19 25 0 29 34 36 44 9z m-54 -63 c0 -19 -36 -36 -45
-21 -9 15 7 40 26 40 12 0 19 -7 19 -19z m7 -154 c-5 -26 -47 -38 -47 -14 0
19 20 36 36 30 7 -3 12 -10 11 -16z"/>
<path d="M6808 10104 c-3 -3 1 -19 9 -35 17 -35 23 -33 29 10 4 25 2 31 -14
31 -10 0 -21 -3 -24 -6z"/>
<path d="M5569 10067 c-25 -18 -67 -53 -94 -79 -27 -27 -57 -48 -66 -48 -9 0
-20 -7 -23 -16 -9 -23 -8 -24 18 -24 21 0 24 -6 30 -50 5 -41 10 -50 26 -50
21 0 23 9 24 105 1 44 4 50 23 53 15 2 23 11 25 30 2 21 8 27 28 27 20 0 25 5
25 25 0 15 7 26 18 28 9 2 17 9 17 15 0 7 4 6 10 -3 8 -13 10 -12 10 3 0 24
-18 20 -71 -16z"/>
<path d="M6910 10089 c0 -5 5 -7 10 -4 6 3 10 8 10 11 0 2 -4 4 -10 4 -5 0
-10 -5 -10 -11z"/>
<path d="M6760 10080 c8 -5 20 -10 25 -10 6 0 3 5 -5 10 -8 5 -19 10 -25 10
-5 0 -3 -5 5 -10z"/>
<path d="M6967 10030 c3 -11 12 -20 20 -20 11 0 11 4 3 20 -6 11 -15 20 -19
20 -5 0 -7 -9 -4 -20z"/>
<path d="M6842 10010 c11 -17 10 -22 -2 -31 -13 -9 -12 -10 3 -5 11 3 17 0 17
-9 0 -8 5 -15 10 -15 6 0 10 -7 10 -17 0 -22 6 -14 14 20 4 17 3 26 -3 23 -5
-3 -7 3 -4 14 4 16 2 19 -11 14 -10 -4 -18 0 -22 10 -3 9 -10 16 -15 16 -5 0
-4 -9 3 -20z"/>
<path d="M7013 9851 c4 -18 7 -37 7 -42 0 -5 5 -9 10 -9 17 0 11 57 -7 71 -15
13 -16 11 -10 -20z"/>
<path d="M6120 9825 c0 -20 -5 -25 -24 -25 -19 0 -25 -6 -28 -27 -2 -22 -9
-29 -31 -31 -23 -3 -28 -8 -25 -25 2 -16 11 -23 31 -25 21 -3 27 -9 27 -27 0
-22 4 -24 50 -23 46 0 50 2 50 24 0 19 5 24 24 24 30 0 33 9 28 93 l-4 67 -49
0 c-46 0 -49 -2 -49 -25z"/>
<path d="M6866 9835 c-3 -8 -2 -15 3 -15 5 0 14 7 21 15 10 12 10 15 -3 15 -8
0 -17 -7 -21 -15z"/>
<path d="M5340 9820 c0 -5 5 -10 11 -10 5 0 7 5 4 10 -3 6 -8 10 -11 10 -2 0
-4 -4 -4 -10z"/>
<path d="M6868 9803 c7 -3 16 -2 19 1 4 3 -2 6 -13 5 -11 0 -14 -3 -6 -6z"/>
<path d="M5800 9729 c0 -5 4 -8 9 -4 5 3 11 -3 13 -12 3 -15 5 -14 10 5 5 17
2 22 -13 22 -10 0 -19 -5 -19 -11z"/>
<path d="M6440 9660 c0 -5 5 -10 11 -10 5 0 7 5 4 10 -3 6 -8 10 -11 10 -2 0
-4 -4 -4 -10z"/>
<path d="M6287 9633 c-11 -10 -8 -33 4 -33 5 0 8 4 4 9 -3 6 3 14 12 20 15 9
15 10 2 11 -9 0 -19 -3 -22 -7z"/>
<path d="M6372 9615 c-7 -15 -8 -25 -2 -25 6 0 10 5 10 11 0 8 4 8 13 1 7 -6
17 -8 22 -4 13 9 17 32 6 32 -5 0 -12 -6 -14 -12 -3 -8 -6 -6 -6 5 -1 25 -16
21 -29 -8z"/>
<path d="M6340 9610 c-6 -11 -7 -20 -2 -20 6 0 12 9 15 20 3 11 3 20 1 20 -2
0 -8 -9 -14 -20z"/>
<path d="M6258 9583 c-20 -3 -28 -10 -28 -24 0 -16 7 -19 44 -19 43 0 58 11
49 38 -5 12 -14 13 -65 5z"/>
<path d="M6490 9510 c0 -15 7 -20 25 -20 18 0 25 5 25 20 0 15 -7 20 -25 20
-18 0 -25 -5 -25 -20z"/>
<path d="M6089 9421 c11 -7 10 -10 -5 -14 -16 -4 -16 -5 4 -6 13 -1 22 5 22
14 0 8 -8 15 -17 15 -15 0 -15 -2 -4 -9z"/>
<path d="M6078 9383 c6 -2 18 -2 25 0 6 3 1 5 -13 5 -14 0 -19 -2 -12 -5z"/>
<path d="M6330 9350 c0 -30 0 -30 53 -27 45 2 52 6 55 25 2 12 0 22 -5 22 -4
1 -29 3 -55 5 -47 4 -48 4 -48 -25z"/>
<path d="M4924 9349 c-8 -14 11 -33 25 -25 16 10 13 36 -3 36 -8 0 -18 -5 -22
-11z"/>
<path d="M5010 9275 c0 -52 1 -55 25 -55 23 0 25 3 25 49 0 35 -4 51 -16 55
-30 12 -34 6 -34 -49z"/>
<path d="M5330 9297 c0 -16 6 -23 19 -23 13 0 19 7 19 23 0 16 -6 23 -19 23
-13 0 -19 -7 -19 -23z"/>
<path d="M6227 9313 c-3 -5 -4 -24 -2 -43 2 -19 4 -38 4 -42 1 -5 20 -8 43 -8
39 0 41 1 22 15 -19 14 -19 15 3 21 17 5 22 13 20 35 -2 27 -5 29 -44 29 -23
0 -44 -3 -46 -7z"/>
<path d="M4888 9288 c-21 -22 -24 -68 -4 -68 8 0 16 16 20 41 4 23 5 43 4 44
-2 1 -11 -7 -20 -17z"/>
<path d="M5125 9260 c-3 -5 2 -10 12 -11 16 0 16 -1 -2 -9 -14 -6 -15 -9 -5
-10 8 0 32 -3 53 -6 34 -5 37 -4 37 19 0 19 -5 25 -25 25 -14 0 -26 -7 -28
-17 -4 -14 -5 -14 -6 2 -1 18 -26 23 -36 7z"/>
<path d="M7015 9224 c-3 -25 -4 -48 -1 -52 12 -11 28 16 33 57 4 32 2 41 -10
41 -10 0 -17 -15 -22 -46z"/>
<path d="M5120 9196 c0 -20 5 -26 21 -26 15 0 20 5 17 22 -5 34 -38 37 -38 4z"/>
<path d="M5277 9206 c-3 -7 -3 -32 0 -55 6 -40 5 -41 -26 -41 l-31 0 0 -95 c0
-56 4 -96 10 -96 29 -5 35 -2 35 16 0 14 8 21 28 23 l27 3 0 130 c0 120 -1
129 -19 129 -10 0 -21 -6 -24 -14z"/>
<path d="M6696 9173 c-3 -26 -2 -51 3 -56 5 -5 29 -5 55 -2 36 6 46 11 46 26
0 14 -7 19 -25 19 -21 0 -25 5 -25 30 0 25 -4 30 -24 30 -20 0 -24 -6 -30 -47z"/>
<path d="M6118 9183 c-2 -20 -8 -27 -20 -25 -9 1 -19 -2 -23 -8 -3 -5 -1 -10
4 -10 7 0 7 -7 -1 -20 -7 -11 -20 -18 -28 -15 -10 3 -19 -5 -27 -25 -11 -30
-7 -35 21 -24 8 3 13 13 10 22 -5 15 -4 15 6 0 8 -14 24 -18 63 -18 29 0 58
-5 63 -10 8 -8 15 -6 25 6 11 14 11 20 -4 45 -14 26 -15 31 -2 35 22 9 18 24
-6 24 -11 0 -17 -4 -14 -10 3 -5 1 -10 -4 -10 -6 0 -11 16 -11 35 0 30 -3 35
-24 35 -19 0 -25 -6 -28 -27z"/>
<path d="M4827 9183 c-8 -10 -19 -30 -22 -46 -4 -15 -16 -32 -26 -37 -11 -6
-20 -27 -25 -55 -4 -29 -13 -49 -25 -56 -11 -5 -19 -16 -19 -23 0 -8 -6 -19
-14 -25 -8 -6 -27 -40 -44 -75 -17 -35 -35 -67 -41 -71 -6 -3 -11 -15 -11 -25
0 -10 -11 -32 -25 -48 -14 -17 -25 -37 -25 -46 0 -21 -32 -86 -42 -86 -4 0 -8
-8 -8 -19 0 -10 -13 -35 -29 -55 -16 -20 -32 -51 -35 -70 -4 -18 -15 -41 -26
-51 -11 -10 -20 -26 -20 -36 0 -10 -11 -31 -25 -47 -14 -17 -28 -44 -31 -61
-6 -28 -4 -31 20 -31 21 0 26 5 26 25 0 20 5 25 25 25 23 0 25 3 25 50 0 43 3
50 19 50 42 0 49 9 40 53 -9 50 -5 57 27 57 22 0 24 4 24 50 0 47 2 50 25 50
22 0 25 4 25 36 0 33 2 36 25 32 24 -5 25 -3 25 43 0 48 5 54 38 50 8 -1 12
15 12 54 0 56 0 56 28 53 21 -2 27 -8 26 -25 0 -19 5 -23 28 -23 27 0 28 2 28
50 0 47 -2 50 -25 50 -23 0 -25 3 -25 50 0 47 2 50 25 50 21 0 25 5 25 30 0
25 4 30 25 30 24 0 25 2 25 70 0 39 -2 70 -3 70 -2 0 -11 -8 -20 -17z m-217
-508 c0 -8 -4 -15 -10 -15 -5 0 -7 7 -4 15 4 8 8 15 10 15 2 0 4 -7 4 -15z"/>
<path d="M5593 9096 c6 -16 -12 -96 -24 -110 -5 -6 -9 0 -9 14 0 44 -15 8 -20
-48 -4 -49 -8 -57 -25 -57 -13 0 -21 -8 -23 -21 -2 -17 3 -20 37 -21 32 -1 39
2 35 16 -5 14 -4 14 6 -1 6 -9 17 -15 25 -12 8 4 15 1 15 -5 0 -6 -4 -11 -10
-11 -5 0 -10 -9 -10 -20 0 -13 7 -20 19 -20 25 0 38 20 21 30 -17 10 22 32 43
24 11 -4 15 5 15 41 1 33 -2 44 -11 38 -7 -4 -7 0 2 10 7 9 24 17 37 17 22 0
24 4 23 43 -1 23 -3 34 -6 25 -2 -10 -9 -18 -15 -18 -6 0 -8 10 -4 25 5 18 2
25 -9 25 -9 0 -15 9 -15 25 0 20 -5 25 -26 25 -21 0 -25 -4 -21 -20 3 -11 1
-20 -4 -20 -5 0 -10 10 -10 23 -1 18 -3 16 -9 -8 l-8 -30 -1 28 c0 15 -6 27
-12 27 -6 0 -9 -6 -6 -14z"/>
<path d="M5566 9047 c3 -10 9 -15 12 -12 3 3 0 11 -7 18 -10 9 -11 8 -5 -6z"/>
<path d="M5980 9051 c0 -5 5 -13 10 -16 6 -3 10 -2 10 4 0 5 -4 13 -10 16 -5
3 -10 2 -10 -4z"/>
<path d="M6057 9053 c-4 -3 -7 -13 -7 -22 1 -13 3 -13 11 2 11 19 8 33 -4 20z"/>
<path d="M5960 9045 c0 -5 5 -17 10 -25 5 -8 10 -10 10 -5 0 6 -5 17 -10 25
-5 8 -10 11 -10 5z"/>
<path d="M6088 9033 c7 -3 16 -2 19 1 4 3 -2 6 -13 5 -11 0 -14 -3 -6 -6z"/>
<path d="M6970 8986 c0 -8 -3 -23 -6 -33 -6 -16 -5 -16 9 2 19 23 22 45 7 45
-5 0 -10 -6 -10 -14z"/>
<path d="M5195 8940 c3 -5 8 -10 11 -10 2 0 4 5 4 10 0 6 -5 10 -11 10 -5 0
-7 -4 -4 -10z"/>
<path d="M5873 8943 c-18 -7 -16 -23 3 -23 8 0 12 -4 9 -10 -3 -5 1 -10 9 -10
17 0 20 9 10 34 -6 17 -11 18 -31 9z"/>
<path d="M5122 8798 c2 -38 7 -54 18 -56 12 -2 19 11 26 47 10 46 9 50 -10 55
-36 10 -37 7 -34 -46z"/>
<path d="M6430 8825 c0 -24 3 -25 55 -25 52 0 55 1 55 25 0 24 -3 25 -55 25
-52 0 -55 -1 -55 -25z"/>
<path d="M4978 8833 c7 -3 16 -2 19 1 4 3 -2 6 -13 5 -11 0 -14 -3 -6 -6z"/>
<path d="M4990 8813 c0 -6 -18 -14 -40 -18 l-40 -7 0 -74 c0 -66 2 -74 19 -74
26 0 35 40 13 56 -11 9 -12 13 -4 14 6 0 12 9 12 20 0 16 7 20 30 20 24 0 30
4 30 23 0 22 -20 62 -20 40z"/>
<path d="M5083 8742 c-20 -3 -23 -9 -23 -53 0 -45 -2 -49 -24 -49 -29 0 -43
-45 -17 -55 12 -5 13 -8 2 -14 -18 -11 -5 -31 20 -31 21 0 26 25 7 33 -10 4
-10 6 0 6 7 1 12 14 12 31 0 27 3 30 30 30 29 0 30 1 30 49 0 54 -4 59 -37 53z"/>
<path d="M5176 8621 c-4 -7 -5 -15 -2 -18 9 -9 19 4 14 18 -4 11 -6 11 -12 0z"/>
<path d="M4848 8558 c-2 -17 -9 -23 -25 -22 -22 1 -23 -3 -23 -78 0 -77 0 -78
-25 -78 -21 0 -25 -5 -25 -30 0 -25 4 -30 24 -30 18 0 25 6 28 23 2 14 11 23
26 25 20 3 22 9 22 58 0 54 1 55 26 52 24 -3 26 -6 30 -71 4 -74 8 -87 29 -87
9 0 16 19 21 56 6 52 8 55 30 50 23 -6 24 -4 24 49 0 54 0 55 -30 55 -25 0
-30 -4 -30 -25 0 -18 -5 -25 -20 -25 -11 0 -20 7 -20 15 0 8 6 12 13 9 8 -3
14 2 14 11 0 8 -7 14 -16 13 -11 -2 -17 6 -19 25 -4 36 -49 40 -54 5z"/>
<path d="M5335 8470 c-3 -5 1 -10 9 -10 8 0 17 -8 19 -17 4 -15 5 -15 6 -2 1
21 -25 44 -34 29z"/>
<path d="M4506 8413 c6 -4 14 -15 17 -23 5 -11 6 -9 4 4 -1 11 -9 21 -17 23
-10 3 -11 2 -4 -4z"/>
<path d="M5380 8400 c0 -15 7 -20 25 -20 18 0 25 5 25 20 0 15 -7 20 -25 20
-18 0 -25 -5 -25 -20z"/>
<path d="M5330 8345 c0 -14 3 -25 8 -25 30 1 41 50 10 50 -13 0 -18 -7 -18
-25z"/>
<path d="M4855 8307 c-3 -7 -4 -28 -2 -47 3 -27 9 -36 26 -38 19 -3 21 1 21
47 0 45 -3 51 -20 51 -11 0 -23 -6 -25 -13z"/>
<path d="M9730 8230 c0 -5 5 -10 10 -10 6 0 10 5 10 10 0 6 -4 10 -10 10 -5 0
-10 -4 -10 -10z"/>
<path d="M4380 8191 c0 -16 6 -21 26 -21 33 0 30 33 -4 38 -17 3 -22 -2 -22
-17z"/>
<path d="M4700 8191 c0 -19 23 -35 34 -24 11 11 6 24 -6 17 -9 -5 -9 -2 1 9
12 15 11 17 -8 17 -14 0 -21 -6 -21 -19z"/>
<path d="M4800 8160 c0 -47 2 -50 25 -50 23 0 25 3 25 50 0 47 -2 50 -25 50
-23 0 -25 -3 -25 -50z"/>
<path d="M5704 8199 c-11 -18 14 -35 29 -20 10 11 9 13 -5 8 -20 -7 -25 9 -5
16 9 4 9 6 0 6 -6 1 -15 -4 -19 -10z"/>
<path d="M9410 8175 c-10 -13 -9 -15 9 -15 12 0 21 6 21 15 0 8 -4 15 -9 15
-5 0 -14 -7 -21 -15z"/>
<path d="M4279 8155 c-1 -3 -3 -9 -4 -15 -1 -5 -3 -25 -4 -44 -1 -28 -5 -35
-23 -38 -20 -3 -23 -10 -26 -56 -2 -40 -7 -52 -17 -49 -27 11 -48 -18 -47 -62
1 -30 -2 -41 -13 -41 -20 0 -39 -39 -37 -77 2 -28 -1 -32 -25 -35 -27 -3 -28
-5 -25 -50 3 -42 1 -48 -17 -48 -23 0 -35 -30 -32 -77 1 -28 -2 -33 -21 -33
-24 0 -54 -45 -37 -56 5 -3 9 -16 9 -30 0 -21 4 -25 23 -22 16 2 23 11 25 33
5 59 12 75 32 75 16 0 20 7 20 30 0 17 3 29 8 29 33 -5 42 3 42 39 0 20 3 54
6 75 5 30 11 37 30 37 17 0 23 6 26 28 2 19 9 27 23 27 14 0 20 7 20 25 0 20
6 26 28 28 19 2 27 9 26 20 -1 9 -1 32 0 50 1 27 5 32 26 32 24 0 25 3 25 55
0 51 2 55 24 55 18 0 25 6 27 28 9 61 1 72 -47 72 -24 0 -45 -2 -45 -5z"/>
<path d="M9494 8128 c-3 -4 6 -8 20 -8 14 0 26 4 26 8 0 4 -9 8 -21 8 -11 0
-23 -4 -25 -8z"/>
<path d="M9210 8120 c-13 -8 -12 -10 3 -10 9 0 17 5 17 10 0 12 -1 12 -20 0z"/>
<path d="M4646 8097 c3 -10 9 -15 12 -12 3 3 0 11 -7 18 -10 9 -11 8 -5 -6z"/>
<path d="M9877 8069 c7 -7 15 -10 18 -7 3 3 -2 9 -12 12 -14 6 -15 5 -6 -5z"/>
<path d="M4634 8056 c-11 -6 -19 -17 -16 -24 2 -7 8 -10 13 -6 5 3 9 0 9 -5 0
-6 11 -11 25 -11 20 0 25 5 25 24 0 28 -25 37 -56 22z"/>
<path d="M4798 8008 l-3 -53 -47 1 -48 0 0 -61 c0 -34 -3 -83 -6 -109 -6 -40
-10 -46 -30 -46 -22 0 -24 -4 -24 -51 0 -49 -1 -51 -25 -47 -23 5 -25 2 -25
-32 0 -32 3 -37 23 -36 17 1 23 8 25 34 3 28 7 32 33 32 21 0 28 4 27 18 -1 9
0 32 0 50 2 29 5 33 25 30 23 -3 24 -5 26 -63 1 -30 4 -35 26 -35 23 0 25 3
25 50 0 47 2 50 25 50 20 0 25 5 25 25 0 20 -5 25 -25 25 -20 0 -25 -5 -25
-25 0 -21 -5 -25 -30 -25 -28 0 -30 3 -27 28 3 21 10 28 30 30 25 3 27 7 27
53 0 48 1 49 31 49 26 0 30 3 27 23 -2 18 2 23 26 25 27 3 28 6 22 40 -3 20
-6 45 -6 55 0 14 -9 17 -49 17 l-50 0 -3 -52z"/>
<path d="M5010 8035 c0 -20 -5 -25 -25 -25 -21 0 -25 -5 -25 -27 0 -37 -13
-55 -32 -48 -19 7 -26 -14 -20 -57 6 -37 42 -40 42 -3 0 21 5 25 30 25 25 0
30 4 30 25 0 20 5 25 24 25 19 0 25 6 28 27 2 22 8 28 28 28 20 0 26 6 28 28
3 27 2 27 -52 27 -53 0 -56 -1 -56 -25z m-70 -125 c0 -5 -4 -10 -10 -10 -5 0
-10 5 -10 10 0 6 5 10 10 10 6 0 10 -4 10 -10z"/>
<path d="M4590 7980 c0 -25 4 -30 25 -30 21 0 25 5 25 30 0 25 -4 30 -25 30
-21 0 -25 -5 -25 -30z"/>
<path d="M8735 7960 c-3 -5 -1 -10 4 -10 6 0 11 5 11 10 0 6 -2 10 -4 10 -3 0
-8 -4 -11 -10z"/>
<path d="M4857 7826 c-7 -18 1 -26 25 -26 11 0 18 7 18 20 0 23 -35 28 -43 6z"/>
<path d="M10506 7824 c-8 -21 -3 -26 16 -19 18 7 20 35 2 35 -6 0 -15 -7 -18
-16z"/>
<path d="M8499 7781 c10 -7 11 -13 2 -30 -10 -17 -9 -22 4 -28 13 -5 14 -7 3
-14 -9 -6 -9 -9 -1 -9 7 0 17 8 23 18 10 15 11 14 7 -5 -4 -20 -1 -23 23 -23
15 0 30 6 32 13 10 25 -4 37 -43 37 -21 0 -39 4 -39 10 0 5 7 7 15 4 10 -4 15
0 15 15 0 16 -6 21 -27 21 -20 0 -24 -3 -14 -9z"/>
<path d="M8664 7778 c-5 -7 -2 -9 9 -5 9 3 18 1 21 -6 2 -7 5 -4 5 6 1 19 -24
23 -35 5z"/>
<path d="M9440 7728 c40 -9 42 -11 23 -19 -27 -10 -30 -19 -5 -14 9 2 20 4 25
4 21 2 3 29 -24 35 -51 10 -68 5 -19 -6z"/>
<path d="M8600 7666 c0 -21 5 -26 26 -26 21 0 25 4 22 23 -2 14 -11 23 -25 25
-19 3 -23 -1 -23 -22z"/>
<path d="M5960 7604 c0 -19 4 -33 9 -29 5 3 12 1 16 -5 12 -19 25 1 25 36 0
30 -3 34 -25 34 -22 0 -25 -4 -25 -36z"/>
<path d="M10650 7624 c0 -8 5 -12 10 -9 6 3 10 10 10 16 0 5 -4 9 -10 9 -5 0
-10 -7 -10 -16z"/>
<path d="M8490 7608 c0 -13 8 -18 25 -18 18 0 25 5 25 20 0 15 -6 19 -25 18
-17 -2 -25 -8 -25 -20z"/>
<path d="M7895 7590 c-3 -5 -1 -10 4 -10 6 0 11 5 11 10 0 6 -2 10 -4 10 -3 0
-8 -4 -11 -10z"/>
<path d="M5970 7550 c0 -5 10 -10 23 -10 18 0 19 2 7 10 -19 13 -30 13 -30 0z"/>
<path d="M4608 7543 c6 -2 18 -2 25 0 6 3 1 5 -13 5 -14 0 -19 -2 -12 -5z"/>
<path d="M4540 7505 c0 -20 5 -25 25 -25 20 0 25 5 25 25 0 20 -5 25 -25 25
-20 0 -25 -5 -25 -25z"/>
<path d="M10590 7508 c0 -20 1 -21 20 -3 11 10 20 20 20 22 0 1 -9 3 -20 3
-14 0 -20 -7 -20 -22z"/>
<path d="M8337 7473 c-4 -3 -7 -15 -7 -25 0 -21 45 -26 52 -5 11 28 -24 52
-45 30z"/>
<path d="M8230 7400 c0 -32 3 -33 63 -24 28 5 37 11 37 26 0 16 -5 19 -25 16
-14 -3 -25 -1 -25 3 0 5 -11 9 -25 9 -21 0 -25 -5 -25 -30z"/>
<path d="M3915 7411 c-3 -6 -8 -28 -11 -50 -6 -40 -5 -41 25 -41 27 0 30 3 27
23 -3 12 -5 34 -5 50 -1 26 -23 38 -36 18z"/>
<path d="M4492 7373 c2 -36 7 -49 21 -51 14 -3 17 4 17 47 0 45 -3 51 -21 51
-18 0 -20 -5 -17 -47z"/>
<path d="M7470 7380 c-13 -8 -12 -10 3 -10 9 0 17 5 17 10 0 12 -1 12 -20 0z"/>
<path d="M8126 7354 c-10 -25 2 -34 49 -34 42 0 57 11 48 38 -7 19 -89 16 -97
-4z"/>
<path d="M10490 7354 c0 -14 3 -14 15 -4 8 7 15 14 15 16 0 2 -7 4 -15 4 -8 0
-15 -7 -15 -16z"/>
<path d="M3852 7303 c-5 -10 -7 -35 -5 -55 4 -32 9 -38 29 -38 22 0 24 4 24
45 0 25 1 48 3 53 5 16 -42 12 -51 -5z"/>
<path d="M4430 7295 c0 -20 5 -25 25 -25 20 0 25 5 25 25 0 20 -5 25 -25 25
-20 0 -25 -5 -25 -25z"/>
<path d="M8020 7294 c0 -24 2 -25 52 -22 44 3 52 6 54 26 4 21 0 22 -51 22
-52 0 -55 -1 -55 -26z"/>
<path d="M7407 7293 c-4 -3 -7 -11 -7 -17 0 -6 5 -5 12 2 6 6 9 14 7 17 -3 3
-9 2 -12 -2z"/>
<path d="M7860 7186 c0 -23 -4 -25 -52 -28 -45 -3 -53 -6 -53 -23 0 -17 7 -20
50 -20 44 0 50 3 53 23 3 16 10 22 28 22 19 0 24 5 24 25 0 20 -5 25 -25 25
-20 0 -25 -5 -25 -24z"/>
<path d="M3800 7105 c0 -52 1 -55 25 -55 23 0 25 3 25 49 0 43 3 50 23 54 12
2 1 5 -25 6 l-48 1 0 -55z"/>
<path d="M3860 7121 c0 -5 9 -7 20 -4 11 3 20 7 20 9 0 2 -9 4 -20 4 -11 0
-20 -4 -20 -9z"/>
<path d="M3738 7039 c-22 -12 -23 -29 -3 -29 12 0 15 -13 15 -55 0 -48 2 -55
20 -55 22 0 28 35 8 43 -9 4 -8 6 2 6 11 1 16 15 17 51 2 45 0 50 -20 50 -12
0 -30 -5 -39 -11z"/>
<path d="M6703 6934 c-8 -21 15 -44 26 -25 7 11 9 11 14 0 2 -8 4 -2 3 13 -1
31 -32 40 -43 12z"/>
<path d="M3690 6876 c4 -22 12 -32 28 -34 18 -3 22 1 22 26 0 25 -5 30 -28 34
-27 4 -28 2 -22 -26z"/>
<path d="M10020 6884 c0 -14 3 -14 15 -4 8 7 15 14 15 16 0 2 -7 4 -15 4 -8 0
-15 -7 -15 -16z"/>
<path d="M6593 6869 c1 -13 9 -19 24 -19 16 0 23 6 23 19 0 13 -7 19 -24 19
-18 0 -24 -6 -23 -19z"/>
<path d="M8020 6870 c0 -17 7 -20 50 -20 43 0 50 3 50 20 0 17 -7 20 -50 20
-43 0 -50 -3 -50 -20z"/>
<path d="M6490 6820 c0 -15 7 -20 25 -20 18 0 25 5 25 20 0 15 -7 20 -25 20
-18 0 -25 -5 -25 -20z"/>
<path d="M6380 6765 c0 -20 5 -25 25 -25 20 0 25 5 25 25 0 20 -5 25 -25 25
-20 0 -25 -5 -25 -25z"/>
<path d="M3617 6763 c-10 -9 -9 -23 2 -23 5 0 11 7 15 15 5 15 -5 20 -17 8z"/>
<path d="M6289 6735 c-1 0 -3 -10 -4 -23 -2 -16 2 -21 11 -18 8 3 21 9 29 12
9 4 15 1 15 -7 0 -11 3 -11 10 1 11 18 14 51 2 34 -10 -14 -42 -26 -42 -14 0
5 8 11 18 13 9 3 5 4 -10 4 -16 -1 -29 -2 -29 -2z"/>
<path d="M9810 6729 c0 -5 5 -7 10 -4 6 3 10 8 10 11 0 2 -4 4 -10 4 -5 0 -10
-5 -10 -11z"/>
<path d="M6371 6714 c0 -11 3 -14 6 -6 3 7 2 16 -1 19 -3 4 -6 -2 -5 -13z"/>
<path d="M6204 6665 c-5 -12 -9 -13 -20 -4 -11 9 -13 9 -9 -2 3 -9 22 -15 50
-17 39 -1 45 1 45 18 0 16 -7 20 -30 20 -18 0 -33 -6 -36 -15z"/>
<path d="M6096 6633 c7 -4 13 -17 15 -28 3 -13 14 -21 32 -23 23 -3 27 0 27
22 0 18 -5 26 -17 26 -10 0 -29 3 -43 6 -14 3 -20 2 -14 -3z"/>
<path d="M3590 6622 c0 -10 22 -32 32 -32 15 0 8 28 -8 34 -21 8 -24 8 -24 -2z"/>
<path d="M6010 6555 c0 -21 5 -25 30 -25 25 0 30 4 30 25 0 21 -5 25 -30 25
-25 0 -30 -4 -30 -25z"/>
<path d="M4530 6506 c0 -33 12 -38 65 -30 39 5 45 10 45 30 0 22 -4 24 -55 24
-52 0 -55 -1 -55 -24z"/>
<path d="M5910 6506 c0 -25 3 -26 51 -26 46 0 50 2 47 22 -3 19 -10 23 -50 26
-46 3 -48 2 -48 -22z"/>
<path d="M6648 6448 c-2 -17 -11 -24 -32 -26 -27 -3 -28 -6 -22 -40 3 -20 6
-43 6 -49 0 -9 22 -13 75 -13 l75 0 0 55 c0 52 -1 55 -25 55 -18 0 -25 5 -25
20 0 30 -47 28 -52 -2z"/>
<path d="M3466 6341 c-4 -7 -5 -15 -2 -18 9 -9 19 4 14 18 -4 11 -6 11 -12 0z"/>
<path d="M3487 6313 c-4 -3 -7 -15 -7 -25 0 -13 7 -18 25 -18 20 0 25 5 25 25
0 18 -5 25 -18 25 -10 0 -22 -3 -25 -7z"/>
<path d="M5465 6280 c-3 -5 -1 -10 4 -10 6 0 11 5 11 10 0 6 -2 10 -4 10 -3 0
-8 -4 -11 -10z"/>
<path d="M3434 6202 c-15 -10 -25 -42 -14 -42 6 0 10 -36 10 -84 l0 -83 25 5
c24 4 25 7 25 83 0 72 -2 79 -19 79 -11 0 -23 5 -26 10 -4 7 3 9 22 5 l28 -6
-25 16 -25 16 24 -7 c16 -4 21 -3 17 5 -8 13 -26 14 -42 3z"/>
<path d="M5200 6109 c0 -5 5 -7 10 -4 6 3 10 8 10 11 0 2 -4 4 -10 4 -5 0 -10
-5 -10 -11z"/>
<path d="M5252 6086 c7 -8 15 -12 17 -11 5 6 -10 25 -20 25 -5 0 -4 -6 3 -14z"/>
<path d="M5226 6068 c3 -4 9 -8 15 -8 5 0 9 4 9 8 0 5 -7 9 -15 9 -8 0 -12 -4
-9 -9z"/>
<path d="M5126 6041 c-4 -5 3 -15 15 -21 18 -10 20 -9 17 6 -4 20 -23 30 -32
15z"/>
<path d="M3600 5985 c-10 -12 -9 -15 6 -15 16 0 17 -2 4 -10 -13 -8 -12 -10 2
-10 13 0 17 7 16 25 -3 29 -10 31 -28 10z"/>
<path d="M4750 5984 c0 -8 5 -12 10 -9 6 3 10 10 10 16 0 5 -4 9 -10 9 -5 0
-10 -7 -10 -16z"/>
<path d="M3540 5925 c0 -18 5 -25 20 -25 15 0 20 7 20 25 0 18 -5 25 -20 25
-15 0 -20 -7 -20 -25z"/>
<path d="M4710 5805 c0 -8 7 -15 15 -15 8 0 15 7 15 15 0 8 -7 15 -15 15 -8 0
-15 -7 -15 -15z"/>
<path d="M4430 5555 c0 -20 5 -25 25 -25 20 0 25 5 25 25 0 20 -5 25 -25 25
-20 0 -25 -5 -25 -25z"/>
<path d="M5750 5555 c0 -20 28 -31 43 -16 8 8 8 11 -2 11 -7 0 -9 5 -6 10 3 6
-3 10 -14 10 -12 0 -21 -7 -21 -15z"/>
<path d="M4062 5473 c2 -39 7 -57 15 -56 7 2 10 -4 7 -12 -4 -9 0 -15 9 -15 9
0 14 7 12 18 -2 9 -4 41 -4 70 -1 46 -4 52 -21 52 -19 0 -21 -5 -18 -57z"/>
<path d="M5170 5445 c0 -20 5 -25 25 -25 20 0 25 5 25 25 0 20 -5 25 -25 25
-20 0 -25 -5 -25 -25z"/>
<path d="M5330 5451 c0 -14 -8 -21 -27 -23 -22 -2 -29 -9 -31 -30 -3 -22 -9
-28 -28 -28 -19 0 -24 -5 -24 -25 0 -24 2 -25 68 -25 37 0 84 -3 105 -6 36 -6
37 -6 37 25 0 26 -4 31 -25 31 -23 0 -25 3 -25 50 0 47 -2 50 -25 50 -18 0
-25 -5 -25 -19z"/>
<path d="M6440 5445 c0 -18 5 -25 20 -25 15 0 20 7 20 25 0 18 -5 25 -20 25
-15 0 -20 -7 -20 -25z"/>
<path d="M4173 5403 c-10 -25 6 -46 30 -39 12 3 32 6 45 6 17 0 22 6 22 25 0
24 -3 26 -46 23 -26 -2 -49 -9 -51 -15z"/>
<path d="M5490 5405 c0 -8 5 -15 11 -15 5 0 7 5 3 12 -4 7 -3 8 5 4 9 -6 9
-11 0 -22 -9 -11 -8 -14 5 -14 10 0 16 9 16 25 0 18 -5 25 -20 25 -11 0 -20
-7 -20 -15z"/>
<path d="M2865 5300 c-10 -16 7 -31 23 -21 10 6 10 10 -2 20 -10 9 -16 9 -21
1z"/>
<path d="M5280 5235 c0 -23 4 -25 43 -25 38 1 40 2 23 15 -10 7 -15 18 -11 24
4 7 -5 11 -24 11 -26 0 -31 -4 -31 -25z"/>
<path d="M6280 5234 c0 -24 2 -25 48 -22 40 3 47 6 50 26 3 20 0 22 -47 22
-48 0 -51 -2 -51 -26z"/>
<path d="M2650 5236 c0 -8 10 -16 23 -18 14 -2 23 -11 25 -25 2 -15 10 -23 24
-23 18 0 20 4 14 31 -3 17 -6 35 -6 40 0 5 -18 9 -40 9 -28 0 -40 -4 -40 -14z"/>
<path d="M6581 4914 c0 -11 3 -14 6 -6 3 7 2 16 -1 19 -3 4 -6 -2 -5 -13z"/>
<path d="M5170 4840 l0 -50 50 0 50 0 0 50 0 50 -50 0 -50 0 0 -50z"/>
<path d="M7072 4873 c4 -19 38 -31 38 -14 0 6 -8 11 -17 12 -12 1 -10 4 7 9
l25 8 -28 1 c-22 1 -28 -3 -25 -16z"/>
<path d="M2454 4852 c-6 -15 -9 -33 -6 -40 6 -20 32 -14 32 8 0 13 7 20 20 20
13 0 20 7 20 20 0 15 -7 20 -28 20 -21 0 -30 -7 -38 -28z"/>
<path d="M6928 4833 c6 -2 18 -2 25 0 6 3 1 5 -13 5 -14 0 -19 -2 -12 -5z"/>
<path d="M7083 4833 c9 -2 23 -2 30 0 6 3 -1 5 -18 5 -16 0 -22 -2 -12 -5z"/>
<path d="M7230 4760 c0 -13 7 -20 19 -20 10 0 21 9 24 20 4 16 0 20 -19 20
-17 0 -24 -6 -24 -20z"/>
<path d="M7700 4650 c0 -17 7 -20 45 -20 38 0 45 3 45 20 0 17 -7 20 -45 20
-38 0 -45 -3 -45 -20z"/>
<path d="M7920 4495 c0 -8 5 -15 10 -15 6 0 10 7 10 15 0 8 -4 15 -10 15 -5 0
-10 -7 -10 -15z"/>
<path d="M6360 4490 c0 -5 5 -10 11 -10 5 0 7 5 4 10 -3 6 -8 10 -11 10 -2 0
-4 -4 -4 -10z"/>
<path d="M6277 4413 c-4 -3 -7 -15 -7 -25 0 -13 7 -18 25 -18 20 0 25 5 25 25
0 18 -5 25 -18 25 -10 0 -22 -3 -25 -7z"/>
<path d="M6440 4130 c0 -17 7 -20 50 -20 43 0 50 3 50 20 0 17 -7 20 -50 20
-43 0 -50 -3 -50 -20z"/>
<path d="M6650 4125 c0 -18 5 -25 20 -25 15 0 20 7 20 25 0 18 -5 25 -20 25
-15 0 -20 -7 -20 -25z"/>
<path d="M7098 3833 c-18 -3 -28 -11 -30 -26 -2 -12 -10 -23 -18 -23 -8 -1
-21 -2 -29 -3 -9 -1 -11 -9 -7 -26 l6 -25 -80 0 -80 0 0 -50 c0 -47 2 -50 25
-50 20 0 25 -5 25 -25 0 -20 5 -25 25 -25 20 0 25 -5 25 -25 0 -23 -3 -25 -49
-25 l-50 0 -7 45 c-5 38 -10 45 -28 44 -20 0 -20 -1 -1 -9 16 -7 16 -9 4 -9
-9 -1 -19 -8 -23 -16 -3 -8 -17 -15 -31 -15 -20 0 -25 -5 -25 -26 0 -23 3 -25
25 -20 23 6 25 3 25 -24 0 -25 -4 -30 -25 -30 -20 0 -25 -5 -25 -25 0 -25 2
-25 83 -26 45 -1 116 -2 157 -3 75 -1 75 -1 78 27 3 23 0 27 -22 27 -21 0 -26
5 -26 25 0 20 5 25 25 25 20 0 25 5 25 24 0 26 28 36 106 36 l44 0 0 50 0 50
-51 0 c-49 0 -50 1 -47 28 2 21 8 27 26 26 20 -1 22 3 22 52 0 59 1 58 -72 47z"/>
<path d="M2861 3384 c0 -11 3 -14 6 -6 3 7 2 16 -1 19 -3 4 -6 -2 -5 -13z"/>
<path d="M2881 3384 c0 -11 3 -14 6 -6 3 7 2 16 -1 19 -3 4 -6 -2 -5 -13z"/>
<path d="M1803 3020 c-1 -15 4 -20 20 -19 12 0 16 3 10 6 -7 2 -13 11 -13 19
0 22 -16 17 -17 -6z"/>
<path d="M1746 2981 c-10 -16 6 -42 23 -39 9 2 17 13 19 26 3 16 -2 22 -17 22
-11 0 -22 -4 -25 -9z"/>
<path d="M1684 2915 c0 -21 5 -25 28 -25 23 0 28 4 28 25 0 21 -5 25 -28 25
-23 0 -28 -4 -28 -25z"/>
<path d="M1597 2883 c-4 -3 -7 -13 -7 -22 0 -14 2 -14 10 -1 8 13 10 12 10 -2
0 -10 -6 -18 -14 -18 -8 0 -17 -11 -20 -25 -4 -14 -11 -23 -17 -20 -7 5 -6 12
2 21 9 11 7 14 -10 14 -16 0 -20 -6 -18 -22 2 -19 -4 -24 -30 -26 -24 -2 -33
-8 -33 -22 0 -13 -11 -20 -47 -26 -38 -7 -49 -14 -51 -31 -3 -19 -11 -22 -50
-25 -40 -3 -47 -6 -50 -25 -2 -15 -11 -23 -30 -25 -21 -2 -28 -9 -30 -30 -3
-26 -6 -28 -53 -28 -46 0 -49 -1 -49 -26 l0 -27 -99 7 c-67 5 -101 4 -106 -3
-3 -6 -14 -11 -24 -11 -10 0 -22 -13 -29 -33 -17 -48 -15 -57 14 -57 18 0 28
-6 31 -20 5 -18 12 -21 52 -18 l46 3 3 43 3 42 55 0 c51 0 54 1 54 25 0 24 2
25 70 25 67 0 71 1 80 26 6 14 19 28 29 31 11 3 22 16 25 29 5 17 13 24 31 24
20 0 25 5 25 25 0 23 4 25 43 25 50 0 72 12 64 34 -5 12 0 16 17 16 42 0 86
21 86 41 0 14 7 19 25 19 30 0 43 25 27 51 -15 23 -15 39 -1 19 7 -10 9 -11 7
-2 -2 8 -7 13 -12 12 -5 -1 -12 3 -16 9 -3 6 -9 8 -13 4z m-597 -388 c0 -20
-5 -25 -25 -25 -20 0 -25 5 -25 25 0 20 5 25 25 25 20 0 25 -5 25 -25z"/>
<path d="M1430 2760 c0 -6 7 -10 15 -10 8 0 15 2 15 4 0 2 -7 6 -15 10 -8 3
-15 1 -15 -4z"/>
<path d="M640 2425 c-8 -16 -22 -25 -37 -25 -14 0 -23 -6 -23 -15 0 -13 18
-20 43 -16 4 0 7 -12 7 -29 0 -33 6 -35 73 -24 30 5 37 11 37 29 0 18 4 21 25
17 22 -4 25 -1 25 27 0 27 -4 31 -25 31 -14 0 -28 7 -31 15 -4 10 -20 15 -43
15 -30 0 -40 -5 -51 -25z"/>
<path d="M380 2360 c0 -33 3 -40 20 -40 13 0 20 7 20 20 0 15 7 20 25 20 18 0
25 5 25 20 0 17 -7 20 -45 20 l-45 0 0 -40z"/>
<path d="M5750 2335 c0 -20 5 -25 25 -25 20 0 25 5 25 25 0 20 -5 25 -25 25
-20 0 -25 -5 -25 -25z"/>
<path d="M488 2303 c7 -3 16 -2 19 1 4 3 -2 6 -13 5 -11 0 -14 -3 -6 -6z"/>
<path d="M3535 2200 c-6 -44 -10 -50 -31 -50 -19 0 -24 -5 -24 -25 0 -24 -9
-30 -37 -26 -8 1 -13 -9 -13 -22 0 -22 6 -26 45 -31 25 -4 49 -5 53 -2 5 3 7
28 4 56 -4 48 -3 50 21 50 34 0 40 12 32 60 -5 30 -12 40 -25 40 -14 0 -20
-11 -25 -50z"/>
<path d="M5850 2175 c0 -21 5 -25 30 -25 29 0 30 -1 30 -50 0 -47 2 -50 25
-50 23 0 25 3 25 50 0 47 -2 50 -25 50 -20 0 -25 5 -25 25 0 21 -5 25 -30 25
-25 0 -30 -4 -30 -25z"/>
<path d="M5960 2015 c0 -20 5 -25 25 -25 20 0 25 5 25 25 0 20 -5 25 -25 25
-20 0 -25 -5 -25 -25z"/>
<path d="M6017 1983 c-3 -5 -4 -28 -3 -53 1 -38 4 -45 23 -48 19 -3 22 -11 25
-50 3 -40 6 -47 26 -50 16 -3 22 -10 22 -28 0 -20 5 -24 30 -24 25 0 30 -4 30
-25 0 -20 5 -25 26 -25 32 0 30 30 -4 45 -15 7 -22 18 -22 37 0 15 -4 29 -10
33 -5 3 -7 12 -3 20 3 10 -1 15 -15 15 -15 0 -22 8 -24 28 -2 19 -9 28 -25 30
-17 3 -23 12 -28 53 -5 39 -11 49 -25 49 -11 0 -21 -3 -23 -7z"/>
<path d="M3443 1943 c-7 -3 -13 -17 -13 -32 0 -25 3 -28 25 -23 18 3 25 11 25
27 0 24 -16 35 -37 28z"/>
<path d="M3375 1786 c-6 -51 -9 -56 -31 -56 -24 0 -25 -3 -23 -47 3 -46 2 -48
-24 -51 -26 -3 -27 -6 -27 -58 0 -50 -2 -54 -24 -54 -21 0 -24 -6 -30 -50 -5
-41 -10 -50 -26 -50 -12 0 -20 -7 -20 -17 0 -10 -3 -35 -6 -55 -7 -37 -6 -38
25 -38 25 0 32 4 30 18 -1 9 -1 32 0 50 1 27 5 32 26 32 24 0 25 3 25 55 0 52
1 55 25 55 24 0 25 3 25 55 0 51 2 55 24 55 21 0 25 6 31 50 6 45 10 50 31 50
24 0 25 3 22 53 -3 44 -6 52 -24 55 -19 3 -22 -3 -29 -52z"/>
<path d="M6234 1659 c-8 -14 11 -33 25 -25 11 7 4 36 -9 36 -5 0 -12 -5 -16
-11z"/>
<path d="M6280 1545 c0 -20 5 -25 25 -25 20 0 25 -5 25 -25 0 -20 5 -25 25
-25 19 0 25 5 25 23 0 46 -11 65 -33 60 -18 -4 -19 -3 -7 6 12 8 7 11 -22 11
-34 0 -38 -3 -38 -25z m85 -15 c3 -5 -1 -10 -10 -10 -9 0 -13 5 -10 10 3 6 8
10 10 10 2 0 7 -4 10 -10z"/>
<path d="M6387 1463 c-4 -3 -7 -15 -7 -25 0 -13 7 -18 25 -18 27 0 33 18 13
38 -14 14 -22 15 -31 5z"/>
<path d="M6440 1345 c0 -31 3 -35 25 -35 23 0 25 -4 25 -45 0 -25 5 -46 10
-46 6 -1 16 -2 23 -3 6 0 13 -12 15 -26 9 -90 10 -90 56 -90 41 0 44 2 48 31
3 19 -1 39 -11 52 -9 12 -23 34 -30 50 -10 18 -22 27 -38 27 -19 0 -23 5 -23
31 0 50 -16 69 -58 69 -28 0 -33 3 -22 10 13 8 12 10 -2 10 -14 0 -18 -8 -18
-35z"/>
<path d="M3120 1282 c0 -21 5 -28 20 -28 15 0 20 7 20 28 0 21 -5 28 -20 28
-15 0 -20 -7 -20 -28z"/>
<path d="M3066 1219 c-3 -17 -6 -53 -6 -80 0 -46 2 -49 25 -49 24 0 25 3 25
60 0 45 -4 62 -15 66 -8 4 -15 10 -15 15 0 4 7 5 17 2 11 -4 14 -3 9 5 -13 22
-33 12 -40 -19z"/>
<path d="M6696 1084 c-9 -22 -7 -67 3 -82 5 -9 23 -12 51 -10 39 3 45 7 52 33
5 17 6 40 3 53 -5 19 -12 22 -54 22 -35 0 -51 -4 -55 -16z"/>
<path d="M3010 1020 c0 -27 -3 -30 -30 -30 -25 0 -30 -4 -30 -24 0 -15 -7 -26
-18 -29 -21 -5 -32 -44 -32 -113 0 -39 -3 -44 -23 -44 -15 0 -27 -9 -35 -27
-6 -16 -20 -41 -31 -58 -11 -16 -20 -37 -20 -45 -1 -8 -11 -20 -23 -25 -13 -6
-24 -20 -26 -32 -3 -22 -8 -23 -77 -23 -41 0 -77 -5 -80 -10 -4 -7 -24 -8 -51
-4 l-44 6 0 -31 c0 -38 26 -51 101 -51 42 0 49 3 49 20 0 22 6 23 63 14 27 -5
37 -11 37 -25 0 -11 -7 -19 -15 -19 -24 0 -17 -20 8 -21 12 -1 36 -3 52 -5 37
-4 91 12 98 30 3 7 8 79 12 159 8 146 8 147 31 147 20 0 24 5 24 30 0 25 4 30
25 30 21 0 25 5 25 28 0 51 11 72 36 72 22 0 24 4 24 55 0 52 -1 55 -25 55
-21 0 -25 -5 -25 -30z m-165 -420 c0 -9 -11 -16 -25 -18 -20 -2 -22 -1 -10 7
11 8 11 11 2 11 -7 0 -10 5 -7 11 10 15 40 7 40 -11z"/>
<path d="M3110 1022 c0 -24 8 -32 26 -25 22 8 17 43 -6 43 -13 0 -20 -7 -20
-18z"/>
<path d="M6856 997 c-12 -46 -7 -57 24 -57 30 0 30 -1 30 -54 0 -51 1 -54 25
-52 19 1 25 7 25 24 0 20 5 22 49 22 44 0 50 -3 53 -22 4 -28 40 -36 74 -17
19 10 24 21 24 52 0 39 0 39 -33 33 -25 -5 -40 -1 -58 13 -13 10 -43 22 -66
26 -36 6 -43 4 -43 -9 0 -10 -9 -16 -25 -16 -20 0 -25 5 -25 24 0 14 -10 30
-24 39 -23 15 -24 15 -30 -6z"/>
</g>
</svg>
